<svg width="451.729" height="451" xmlns="http://www.w3.org/2000/svg">

 <g>
  <title>background</title>
  <rect fill="none" id="canvas_background" height="602" width="802" y="-1" x="-1"/>
 </g>
 <g>
  <title>Layer 1</title>
  <path fill="#ffffff" stroke="#ffffff" id="svg_1" d="m335.24219,399.65234c-1.28125,0 -2.5586,-0.35156 -3.6836,-1.04687c-2.0664,-1.27734 -3.32031,-3.53125 -3.32031,-5.95703l0,-86.20313l-67.90625,-58.1914c-1.55469,-1.32813 -2.44922,-3.27344 -2.44922,-5.31641l0,-64.28516c0,-3.86718 3.13672,-7.0039 7.00391,-7.0039l180.10937,0c3.86719,0 7.00391,3.13672 7.00391,7.0039l0,64.28516c0,2.04297 -0.89453,3.98828 -2.44531,5.31641l-67.91016,58.1914l0,66.51953c0,2.65235 -1.5,5.07813 -3.87109,6.26563l-39.40235,19.68359c-0.98828,0.49219 -2.05859,0.73828 -3.1289,0.73828zm-63.35156,-159.9375l67.90625,58.19141c1.55468,1.32813 2.44921,3.26953 2.44921,5.31641l0,78.09765l25.39063,-12.6875l0,-65.41015c0,-2.04688 0.89453,-3.98829 2.44531,-5.31641l67.91016,-58.19141l0,-54.05859l-166.10156,0l0,54.05859zm0,0"/>
  <path fill="#ffffff" stroke="#ffffff" id="svg_2" d="m444.99609,216.12891l-177.37109,0c-3.87109,0 -7.00391,-3.13672 -7.00391,-7.00391s3.13282,-7.00391 7.00391,-7.00391l177.37109,0c3.86719,0 7.00391,3.13672 7.00391,7.00391s-3.13672,7.00391 -7.00391,7.00391zm0,0"/>
  <path fill="#ffffff" stroke="#ffffff" id="svg_3" d="m307.25,313.17578c-0.02734,0 -0.05078,0 -0.07812,0l-260.14454,0c-25.92968,0 -47.02734,-21.09375 -47.02734,-47.02734l0,-218.73828c0,-25.9336 21.09766,-47.03125 47.02734,-47.03125l260.15625,0c25.9336,0 47.02735,21.09765 47.02735,47.03125l0,130.93359c0,3.86719 -3.13281,7.00391 -7.00391,7.00391c-3.86719,0 -7.0039,-3.13672 -7.0039,-7.00391l0,-130.93359c0,-18.20704 -14.8125,-33.01954 -33.01954,-33.01954l-260.15625,0c-18.20703,0 -33.01953,14.8125 -33.01953,33.01954l0,218.73828c0,18.20703 14.8125,33.01953 33.01953,33.01953l260.15625,0l0.05469,0c6.58985,0 12.94922,-1.94922 18.40235,-5.63281c3.20703,-2.16797 7.55859,-1.32422 9.72656,1.8789c2.16797,3.20313 1.32422,7.5586 -1.88281,9.72656c-7.77735,5.25782 -16.84766,8.03516 -26.23438,8.03516zm0,0"/>
  <path fill="#ffffff" stroke="#ffffff" id="svg_4" d="m347.20703,95.78125l-340.20312,0c-3.86719,0 -7.00391,-3.13672 -7.00391,-7.00391c0,-3.86718 3.13672,-7.0039 7.00391,-7.0039l340.20312,0c3.8711,0 7.00391,3.13672 7.00391,7.0039c0,3.86719 -3.13281,7.00391 -7.00391,7.00391zm0,0"/>
  <path fill="#ffffff" stroke="#ffffff" id="svg_5" d="m100.4375,67.98438c-10.79297,0 -19.57422,-8.78125 -19.57422,-19.57422c0,-10.79688 8.78125,-19.57813 19.57422,-19.57813c10.79688,0 19.57813,8.78125 19.57813,19.57813c0,10.79297 -8.78125,19.57422 -19.57813,19.57422zm0,-25.14454c-3.07031,0 -5.56641,2.5 -5.56641,5.57032c0,3.07031 2.4961,5.5664 5.56641,5.5664s5.57031,-2.49609 5.57031,-5.5664c0,-3.07032 -2.5,-5.57032 -5.57031,-5.57032zm0,0"/>
  <path fill="#ffffff" stroke="#ffffff" id="svg_6" d="m43.96094,67.80859c-10.79297,0 -19.57422,-8.78125 -19.57422,-19.57812c0,-10.79297 8.78125,-19.57422 19.57422,-19.57422c10.79687,0 19.57812,8.78125 19.57812,19.57422c0,10.79687 -8.78125,19.57812 -19.57812,19.57812zm0,-25.14453c-3.07031,0 -5.56641,2.5 -5.56641,5.56641c0,3.07031 2.4961,5.57031 5.56641,5.57031c3.07031,0 5.57031,-2.5 5.57031,-5.57031c0,-3.06641 -2.5,-5.56641 -5.57031,-5.56641zm0,0"/>
  <path fill="#ffffff" stroke="#ffffff" id="svg_7" d="m156.91406,68.16406c-10.79297,0 -19.57422,-8.78515 -19.57422,-19.57812c0,-10.79297 8.78125,-19.57813 19.57422,-19.57813c10.79688,0 19.57813,8.78516 19.57813,19.57813c0,10.79297 -8.78125,19.57812 -19.57813,19.57812zm0,-25.14453c-3.07031,0 -5.5664,2.4961 -5.5664,5.56641c0,3.07031 2.49609,5.57031 5.5664,5.57031c3.07032,0 5.57032,-2.5 5.57032,-5.57031c0,-3.07031 -2.5,-5.56641 -5.57032,-5.56641zm0,0"/>
 </g>
</svg>