<?xml version="1.0" standalone="no"?>
<!DOCTYPE svg PUBLIC "-//W3C//DTD SVG 20010904//EN"
 "http://www.w3.org/TR/2001/REC-SVG-20010904/DTD/svg10.dtd">
<svg version="1.0" xmlns="http://www.w3.org/2000/svg"
 width="1280.000000pt" height="1047.000000pt" viewBox="0 0 1280.000000 1047.000000"
 preserveAspectRatio="xMidYMid meet">
<metadata>
Created by potrace 1.16, written by Peter Selinger 2001-2019
</metadata>
<g transform="translate(0.000000,1047.000000) scale(0.100000,-0.100000)"
fill="#000000" stroke="none">
<path d="M8560 10419 c-581 -66 -1138 -335 -1556 -753 -536 -537 -810 -1265
-764 -2032 9 -150 26 -297 46 -391 l6 -32 -68 5 c-244 19 -432 38 -589 60
-1601 224 -3068 957 -4220 2109 -178 177 -335 348 -465 507 -30 36 -58 64 -63
61 -17 -11 -156 -306 -200 -426 -54 -147 -108 -358 -133 -522 -27 -171 -27
-589 0 -760 43 -280 119 -522 246 -781 177 -360 454 -698 762 -929 56 -43 105
-80 108 -82 3 -3 -35 -2 -85 1 -324 25 -634 109 -934 252 -74 35 -135 64 -137
64 -8 0 -3 -192 7 -296 56 -574 309 -1126 707 -1545 277 -292 629 -526 997
-662 89 -33 259 -84 308 -93 20 -3 37 -10 37 -14 0 -8 -169 -42 -295 -61 -193
-28 -603 -21 -778 13 -32 6 -60 8 -64 5 -9 -10 54 -179 117 -312 395 -837
1216 -1419 2120 -1504 63 -6 133 -12 155 -14 l40 -2 -112 -82 c-668 -493
-1460 -826 -2281 -958 -429 -70 -1017 -85 -1421 -38 -38 4 -52 3 -47 -5 22
-36 600 -359 851 -475 819 -378 1563 -579 2495 -673 213 -21 898 -30 1157 -15
1435 86 2698 514 3805 1288 1603 1122 2737 2945 3082 4953 74 432 113 928 103
1330 l-5 225 92 66 c325 237 709 614 982 966 108 138 238 323 232 329 -3 2
-67 -21 -144 -52 -413 -166 -761 -258 -1312 -348 -29 -4 -27 -3 78 67 362 240
680 603 875 1001 70 141 160 364 151 373 -2 2 -59 -27 -127 -65 -400 -224
-819 -390 -1274 -505 -77 -20 -168 -41 -203 -48 l-62 -12 -108 104 c-105 102
-277 238 -397 314 -328 208 -740 353 -1127 394 -113 13 -478 12 -588 0z"/>
</g>
</svg>
