<svg xmlns="http://www.w3.org/2000/svg" xmlns:xlink="http://www.w3.org/1999/xlink" viewBox="0 0 53.51 59.27"><defs><style>.cls-1{fill:none;}.cls-2{clip-path:url(#clip-path);}</style><clipPath id="clip-path" transform="translate(0)"><rect class="cls-1" width="53.6" height="59.27"/></clipPath></defs><g id="Layer_2" data-name="Layer 2"><g id="Layer_1-2" data-name="Layer 1"><g class="cls-2"><path d="M52.81,24.16,43.43,14.3a2.56,2.56,0,0,0-3.58-.1l-3.76,3.54a5.49,5.49,0,0,1-4,1.46,7.9,7.9,0,0,0-4.24,1.09l-2.27-.73a6.4,6.4,0,0,0-3.85,0,4,4,0,0,1-4.05-1l-3.4-3.4a2.55,2.55,0,0,0-3.59,0l-10,10a2.54,2.54,0,0,0,0,3.59l5.14,5.13a2.09,2.09,0,0,1,.6,1.47A4.47,4.47,0,0,0,7.8,38.51h0l.23.22-2,2a4,4,0,0,0,2.85,6.87h0a4.12,4.12,0,0,0,1.19,2.73A4,4,0,0,0,13,51.52h.14a4,4,0,0,0,4,3.82h0A4,4,0,0,0,24,58.09l2.33-2.33,2.33,2.33a4,4,0,0,0,6.88-2.93,4,4,0,0,0,3.86-4s0-.06,0-.09a4,4,0,0,0,2.69-1.17,4,4,0,0,0,1.18-2.8,4,4,0,0,0,2.83-1.18,4,4,0,0,0,.31-5.34,6.45,6.45,0,0,0,1.13-3.41l.13-2.75a4,4,0,0,1,1.11-2.58l4-4.15a2.54,2.54,0,0,0,0-3.51ZM7.75,44.73a1.6,1.6,0,0,1,0-2.27l5.18-5.18a1.6,1.6,0,0,1,1.13-.47,1.64,1.64,0,0,1,1.14.47,1.62,1.62,0,0,1,0,2.27L10,44.73a1.57,1.57,0,0,1-1.14.47,1.55,1.55,0,0,1-1.13-.47Zm4.07,3.9a1.6,1.6,0,0,1,0-2.27L17,41.18a1.61,1.61,0,0,1,2.27,2.28l-5.18,5.17a1.6,1.6,0,0,1-2.27,0ZM16,52.44a1.62,1.62,0,0,1,0-2.27L21.16,45a1.58,1.58,0,0,1,1.14-.47,1.6,1.6,0,0,1,1.6,1.6,1.59,1.59,0,0,1-.47,1.14l-5.17,5.18a1.63,1.63,0,0,1-1.14.47A1.6,1.6,0,0,1,16,52.44Zm6.34,3.94a1.61,1.61,0,1,1-2.27-2.27l5.17-5.17h0a1.61,1.61,0,0,1,2.26,0l0,0h0a1.61,1.61,0,0,1,0,2.24h0Zm10.36,0a1.6,1.6,0,0,1-2.27,0l-2.33-2.33,1.13-1.13h0a4.18,4.18,0,0,0,.9-1.37L32.55,54l.06,0,.07.07a1.6,1.6,0,0,1,0,2.27ZM44.41,44.19a1.63,1.63,0,0,1-1.14.47,1.59,1.59,0,0,1-1.13-.47L37,39a1.17,1.17,0,0,0-.42-.27,1.21,1.21,0,0,0-1.32,2l5.18,5.17a1.61,1.61,0,0,1-2.27,2.27L33,43a1.2,1.2,0,0,0-1.71,0,1.21,1.21,0,0,0,0,1.71l.08.08s0,0,0,0L36.53,50A1.59,1.59,0,0,1,37,51.14a1.55,1.55,0,0,1-.47,1.13,1.59,1.59,0,0,1-2.23,0l-5.09-5.08A4,4,0,0,0,26.37,46h-.05a4,4,0,0,0-4.17-3.93,4,4,0,0,0-4.07-3.81,4,4,0,0,0-6.87-2.73L9.75,37l-.24-.24a2,2,0,0,1-.6-1.46,4.47,4.47,0,0,0-1.32-3.18L2.45,27a.12.12,0,0,1,0-.16l10-10a.1.1,0,0,1,.16,0L16,20.25a6.45,6.45,0,0,0,6.48,1.61,4,4,0,0,1,2.41,0l.71.23-5.89,5.76a4.16,4.16,0,0,0-.86,4.64A4.56,4.56,0,0,0,22.06,35a6,6,0,0,0,4.32-1.07,8.93,8.93,0,0,0,1.81-1.52,8.54,8.54,0,0,1,1-.93,3,3,0,0,1,1.64-.62,5.71,5.71,0,0,1,2,.46l.19.07a6.12,6.12,0,0,1,2.4,1.53h0l3.77,3.79.07.09,5.18,5.18a1.62,1.62,0,0,1,0,2.27ZM51.05,26l-4,4.15a6.43,6.43,0,0,0-1.79,4.14L45.14,37a4.18,4.18,0,0,1-.45,1.73l-7.58-7.61a8.65,8.65,0,0,0-3.31-2.1L33.61,29a7.83,7.83,0,0,0-2.86-.6,5.47,5.47,0,0,0-3,1.1,11,11,0,0,0-1.27,1.17,7.09,7.09,0,0,1-1.32,1.13,3.77,3.77,0,0,1-2.62.79,2.1,2.1,0,0,1-1.47-1.1,1.69,1.69,0,0,1,.36-1.89l5.95-5.82a11.87,11.87,0,0,1,1.39-1.16h0a5.47,5.47,0,0,1,3.3-1,7.94,7.94,0,0,0,5.68-2.11L41.51,16a.12.12,0,0,1,.16,0l9.39,9.86a.11.11,0,0,1,0,.16Z" transform="translate(0)"/></g><path d="M33.34,35.67a1.21,1.21,0,1,0-2.24.91v0a1.22,1.22,0,0,0,1.13.76,1.21,1.21,0,0,0,1.12-1.66Z" transform="translate(0)"/><path d="M18.52,13.19h17.3a1.87,1.87,0,0,0,1.87-1.87V1.87A1.87,1.87,0,0,0,35.82,0H18.52a1.87,1.87,0,0,0-1.87,1.87v9.45a1.87,1.87,0,0,0,1.87,1.87Zm.56-10.77H35.27v8.35H19.08Z" transform="translate(0)"/><path d="M24.4,6.06A1.21,1.21,0,1,0,22.15,7l0,0a1.21,1.21,0,0,0,2.24-.91Z" transform="translate(0)"/><path d="M28.11,6.06A1.21,1.21,0,0,0,25.86,7l0,0A1.2,1.2,0,0,0,27,7.76a1.25,1.25,0,0,0,.46-.09,1.2,1.2,0,0,0,.67-1.57Z" transform="translate(0)"/><path d="M31.82,6.06A1.21,1.21,0,1,0,29.58,7V7a1.21,1.21,0,0,0,2.25-.91Z" transform="translate(0)"/></g></g></svg>