<svg xmlns="http://www.w3.org/2000/svg" xmlns:xlink="http://www.w3.org/1999/xlink" viewBox="0 0 57.24 57.23"><defs><style>.cls-1{fill:none;}.cls-2{clip-path:url(#clip-path);}</style><clipPath id="clip-path" transform="translate(0 -0.12)"><rect class="cls-1" width="57.24" height="57.24"/></clipPath></defs><g id="Layer_2" data-name="Layer 2"><g id="Layer_1-2" data-name="Layer 1"><path d="M44.41,38.38a1,1,0,1,0,.85,1.7,7.52,7.52,0,0,0,4.47-6.45A8.67,8.67,0,0,0,45.33,26a1,1,0,0,0-1,0,1,1,0,0,0-.49.83,1,1,0,0,0,.48.84,6.82,6.82,0,0,1,3.47,5.91,5.61,5.61,0,0,1-3.41,4.82Z" transform="translate(0 -0.12)"/><path d="M9.54,50.68a.93.93,0,0,0,.67-.28l1-1a1,1,0,0,0-1.35-1.35l-1,1a.94.94,0,0,0-.21,1,1,1,0,0,0,.88.59Z" transform="translate(0 -0.12)"/><path d="M9.54,10.61H25.76a1,1,0,0,0,0-1.91H9.54a1,1,0,0,0,0,1.91Z" transform="translate(0 -0.12)"/><path d="M29.57,10.61h1a1,1,0,0,0,0-1.91h-1a1,1,0,0,0,0,1.91Z" transform="translate(0 -0.12)"/><path d="M9.54,14.43h8.59a1,1,0,0,0,0-1.91H9.54a1,1,0,0,0,0,1.91Z" transform="translate(0 -0.12)"/><path d="M30.53,12.52H21.94a1,1,0,0,0,0,1.91h8.59a1,1,0,0,0,0-1.91Z" transform="translate(0 -0.12)"/><path d="M9.54,18.24h20a1,1,0,1,0,0-1.91h-20a1,1,0,0,0,0,1.91Z" transform="translate(0 -0.12)"/><path d="M9.54,22.06H25.76a1,1,0,0,0,0-1.91H9.54a1,1,0,0,0,0,1.91Z" transform="translate(0 -0.12)"/><path d="M9.54,25.87h3.82a1,1,0,0,0,0-1.9H9.54a1,1,0,0,0,0,1.9Z" transform="translate(0 -0.12)"/><g class="cls-2"><path d="M28.62,24H17.17a.95.95,0,1,0,0,1.9H28.62a.95.95,0,1,0,0-1.9Z" transform="translate(0 -0.12)"/><path d="M4.77,54.49H35.3V42.85a11.54,11.54,0,0,0,8.87,1.91L49.34,55a4.15,4.15,0,1,0,7.27-4l-6.06-9.6A11.94,11.94,0,0,0,36.3,22.57c-.35.2-.68.4-1,.62V4.89H30.53V.12H0v49.6H4.77ZM55,52a2.25,2.25,0,0,1-2,3.43,2.26,2.26,0,0,1-1.93-1.3l-5-9.88a11.51,11.51,0,0,0,1.72-.76,12.91,12.91,0,0,0,1.32-.85ZM37.22,24.25a10,10,0,1,1-3.8,13.9l7-6.58L41,34.65a1,1,0,0,0,.93.76.68.68,0,0,0,.2,0,1,1,0,0,0,.74-1.12L42,29.5s0-.05,0-.07a1.22,1.22,0,0,0-.07-.17l-.11-.17L41.64,29a.57.57,0,0,0-.18-.12,1.19,1.19,0,0,0-.26-.11l-4.77-.95a.93.93,0,0,0-.92.29,1,1,0,0,0-.2.95,1,1,0,0,0,.75.63l3,.59-6.45,6.07a10,10,0,0,1,4.65-12.08Zm-3.83.57a11.94,11.94,0,0,0-2.32,12.93l-6.18,5.82-4.12-5a1,1,0,0,0-.69-.34.92.92,0,0,0-.72.27l-6.68,6.68a1,1,0,0,0-.26.93,1,1,0,0,0,.68.68.94.94,0,0,0,.93-.26L20,40.64l4.1,4.92a.9.9,0,0,0,.68.34,1,1,0,0,0,.71-.25L32,39.47a11.86,11.86,0,0,0,1.37,1.78V52.58H6.68V6.79H33.39Zm-31.48,23V2H28.62V4.89H4.77V47.81Z" transform="translate(0 -0.12)"/></g></g></g></svg>