<?xml version="1.0" encoding="utf-8"?>
<!-- Generator: Adobe Illustrator 24.1.0, SVG Export Plug-In . SVG Version: 6.00 Build 0)  -->
<svg version="1.1" id="Layer_1" xmlns="http://www.w3.org/2000/svg" xmlns:xlink="http://www.w3.org/1999/xlink" x="0px" y="0px"
	 viewBox="0 0 56.8 77.6" style="enable-background:new 0 0 56.8 77.6;" xml:space="preserve">
<style type="text/css">
	.st0{fill:none;stroke:#7A7A7A;stroke-miterlimit:10;}
</style>
<g id="Layer_2_1_">
	<g id="Layer_1-2">
		<g id="FweAiP">
			<path class="st0" d="M55.8,38.5H0.5c0,6,6.5,11.9,8.8,16c2.8,5,3.5,10.3,3.1,15.8c-0.1,1.8-0.2,3.7-0.3,5.5
				c-0.1,0.9,0.2,1.1,1.1,1.2h26.2c1,0,1.2-0.7,1.2-1.7c-0.4-4.8-0.7-9.5-0.8-14.3c-0.1-3.4,1.8-6,4.8-7.8c1.1-0.7,2.2-1.2,3.4-1.8
				c3.5-1.6,6.2-4.6,7.3-8.3c0.5-1.3,0.8-2.7,1.1-4.2C56.3,38.8,56.2,38.5,55.8,38.5C55.9,38.5,55.8,38.5,55.8,38.5z"/>
			<path class="st0" d="M11.2,0.5H2.6c-1.1-0.1-2,0.7-2.1,1.8v32.1C0.5,35.7,1,36,2.8,36c2.9-0.1,5.8,0,8.7,0c1.2,0,1.8-0.4,1.8-1.3
				V2.3C13.2,1.2,12.2,0.4,11.2,0.5z"/>
			<path class="st0" d="M17.2,38.5v-1.3c0-1,0.8-1.9,1.9-1.9c0,0,0,0,0,0h33.4c1.4,0,2.6,1.2,2.6,2.6l0,0v0.5"/>
		</g>
	</g>
</g>
</svg>
