<svg xmlns="http://www.w3.org/2000/svg" viewBox="0 0 311.57 101.79"><defs><style>.cls-1{fill:#fbb416;}.cls-2,.cls-3{fill:#353635;}.cls-2{fill-rule:evenodd;}.cls-4{fill:#f48220;}.cls-5{fill:#fff;}.cls-6{fill:#03a550;}</style></defs><g id="Layer_2" data-name="Layer 2"><g id="Layer_1-2" data-name="Layer 1"><rect class="cls-1" width="311.57" height="101.79"/><path class="cls-2" d="M120.79,50.45a9.08,9.08,0,0,1-.71,3.63,10.44,10.44,0,0,1-2,3,8.68,8.68,0,0,1-3,2,9.51,9.51,0,0,1-7.26,0,10.21,10.21,0,0,1-3-2,8.82,8.82,0,0,1-2-3,9,9,0,0,1-.72-3.63V42.29a9.12,9.12,0,0,1,.72-3.63,10.21,10.21,0,0,1,2-3,8.82,8.82,0,0,1,3-2,9.47,9.47,0,0,1,8.34.54,9.13,9.13,0,0,1,3.36,3.4l-1.61.95a7.42,7.42,0,0,0-6.46-3.77,7.39,7.39,0,0,0-6.81,4.57,6.92,6.92,0,0,0-.58,2.87v8.16a6.76,6.76,0,0,0,.58,2.87,7.46,7.46,0,0,0,3.9,4,7.07,7.07,0,0,0,2.91.58,6.92,6.92,0,0,0,2.87-.58,7.58,7.58,0,0,0,4-4,7,7,0,0,0,.58-2.87V49.38h-6V47.54h7.8v2.91Zm4.8,8.88h-1.84V50.45a9,9,0,0,1,.72-3.63,10.21,10.21,0,0,1,2-3,8.82,8.82,0,0,1,3-2,9,9,0,0,1,3.63-.72v1.88a6.77,6.77,0,0,0-2.87.59,7.66,7.66,0,0,0-2.37,1.57,7.39,7.39,0,0,0-1.62,2.37,7.12,7.12,0,0,0-.58,2.92v8.83Zm17.62-18.25a9,9,0,0,1,3.63.72,10.21,10.21,0,0,1,3,2,9.33,9.33,0,0,1,2.69,6.59v8.88h-1.88V55.92a8.94,8.94,0,0,1-3.19,2.69,9.59,9.59,0,0,1-7.89.27,10.55,10.55,0,0,1-3-2,8.82,8.82,0,0,1-2-3,9.51,9.51,0,0,1,0-7.26,10.27,10.27,0,0,1,2-3,8.8,8.8,0,0,1,3-2,8.94,8.94,0,0,1,3.63-.71l.05,0Zm0,1.88a6.77,6.77,0,0,0-2.87.59A8.71,8.71,0,0,0,138,45.12a7.36,7.36,0,0,0-1.61,2.37,7.15,7.15,0,0,0-.58,2.92,6.92,6.92,0,0,0,.58,2.87A8,8,0,0,0,138,55.65a8.22,8.22,0,0,0,2.38,1.62,7,7,0,0,0,2.87.58,7.24,7.24,0,0,0,2.91-.58,8.09,8.09,0,0,0,2.38-1.62,7.16,7.16,0,0,0,1.57-2.37,7.08,7.08,0,0,0,.58-2.87,7.28,7.28,0,0,0-.58-2.92,7.84,7.84,0,0,0-1.57-2.37,6.51,6.51,0,0,0-2.38-1.57,6.92,6.92,0,0,0-2.91-.59Zm21.61-1.83a9.11,9.11,0,0,1,3.63.71,10.44,10.44,0,0,1,3,2,9.33,9.33,0,0,1,2.69,6.59v8.87h-1.84V50.41a7.28,7.28,0,0,0-.58-2.92,8,8,0,0,0-1.57-2.37,6.59,6.59,0,0,0-2.38-1.57,6.92,6.92,0,0,0-2.91-.59,6.77,6.77,0,0,0-2.87.59,7.7,7.7,0,0,0-2.38,1.57A7.36,7.36,0,0,0,158,47.49a7.15,7.15,0,0,0-.58,2.92v8.87h-1.84V50.41a8.78,8.78,0,0,1,.72-3.63,10.08,10.08,0,0,1,2-3,8.7,8.7,0,0,1,3-2,8.94,8.94,0,0,1,3.63-.71Zm12.15.44h1.84v17.8H177V41.57Zm0-8.87h1.84v3H177v-3Zm5.29,4.3h1.84v4.66h6.72V43.5H184.1V55a2.8,2.8,0,0,0,.8,2,2.71,2.71,0,0,0,2,.81,2.77,2.77,0,0,0,2-.81,2.7,2.7,0,0,0,.81-2h1.83a4.76,4.76,0,0,1-.35,1.79,4.32,4.32,0,0,1-1,1.48,5.33,5.33,0,0,1-1.48,1,4,4,0,0,1-1.79.36,4.85,4.85,0,0,1-1.8-.36,5,5,0,0,1-1.48-1,4.16,4.16,0,0,1-1-1.48,4.1,4.1,0,0,1-.36-1.79V37Zm20.13,4.17a9.08,9.08,0,0,1,3.63.72,10.21,10.21,0,0,1,3,2,9.33,9.33,0,0,1,2.69,6.59,8.91,8.91,0,0,1-.72,3.63,10.21,10.21,0,0,1-2,3,8.68,8.68,0,0,1-3,2,8.78,8.78,0,0,1-3.63.72,8.91,8.91,0,0,1-3.63-.72,10.21,10.21,0,0,1-3-2,8.68,8.68,0,0,1-2-3,9.51,9.51,0,0,1,0-7.26,10.21,10.21,0,0,1,2-3,8.82,8.82,0,0,1,3-2,9,9,0,0,1,3.63-.72Zm0,1.88a7.45,7.45,0,0,0-5.25,2.16,6.69,6.69,0,0,0-1.57,2.37A7.12,7.12,0,0,0,195,50.5a6.92,6.92,0,0,0,.58,2.87,7.53,7.53,0,0,0,3.91,4,7.07,7.07,0,0,0,2.91.58,6.92,6.92,0,0,0,2.87-.58,8.17,8.17,0,0,0,2.37-1.62,7.8,7.8,0,0,0,1.62-2.37,7.08,7.08,0,0,0,.58-2.87,7.25,7.25,0,0,0-.58-2.92,8,8,0,0,0-1.62-2.37,7.6,7.6,0,0,0-5.24-2.16Zm35.55,16.32H236.1V50.5a9,9,0,0,1,.72-3.64,10.36,10.36,0,0,1,2-3,8.8,8.8,0,0,1,3-2,8.94,8.94,0,0,1,3.63-.71V43.1a6.84,6.84,0,0,0-2.86.58,8,8,0,0,0-2.38,1.57,7.6,7.6,0,0,0-1.62,2.38,7.07,7.07,0,0,0-.58,2.91v8.83Zm25.2-9.73a8,8,0,0,0-.81-2.55A9.06,9.06,0,0,0,260.72,45a7.13,7.13,0,0,0-2.24-1.39,7.64,7.64,0,0,0-2.69-.5,7.56,7.56,0,0,0-2.69.5A6.56,6.56,0,0,0,250.85,45a7.1,7.1,0,0,0-1.61,2.06,6.07,6.07,0,0,0-.81,2.55h14.71Zm-7.35,10.23a9,9,0,0,1-3.64-.72,10.36,10.36,0,0,1-3-2,8.8,8.8,0,0,1-2-3,9.66,9.66,0,0,1,0-7.27,10.39,10.39,0,0,1,2-3,8.66,8.66,0,0,1,3-2,9,9,0,0,1,3.64-.71,9.11,9.11,0,0,1,3.63.71,10.58,10.58,0,0,1,3,2,8.78,8.78,0,0,1,2,3,9,9,0,0,1,.72,3.64V51a1.35,1.35,0,0,1-.05.45H248.34a8,8,0,0,0,.81,2.56,9.35,9.35,0,0,0,1.61,2.06A7.25,7.25,0,0,0,253,57.49a7.78,7.78,0,0,0,2.69.49,5,5,0,0,0,2-.4,4.58,4.58,0,0,0,1.61-1.12l1.3,1.3a6.78,6.78,0,0,1-2.19,1.48,6.94,6.94,0,0,1-2.74.54l.14.09ZM233.14,50.5a9.11,9.11,0,0,1-.71,3.63,10.63,10.63,0,0,1-2,3,9.46,9.46,0,0,1-10.23,2,10.55,10.55,0,0,1-3-2,8.82,8.82,0,0,1-2-3,9,9,0,0,1-.72-3.63V42.34a9.08,9.08,0,0,1,.72-3.63,10.27,10.27,0,0,1,2-3,8.8,8.8,0,0,1,3-2,9.28,9.28,0,0,1,11.7,3.95l-1.61.94a7.48,7.48,0,0,0-6.46-3.77,7,7,0,0,0-2.91.59,7.19,7.19,0,0,0-2.33,1.61,7.1,7.1,0,0,0-1.57,2.38,7,7,0,0,0-.58,2.87V50.5a6.92,6.92,0,0,0,.58,2.87,7.56,7.56,0,0,0,3.9,4,7.1,7.1,0,0,0,2.91.58,6.85,6.85,0,0,0,2.87-.58,8.09,8.09,0,0,0,2.38-1.62,8,8,0,0,0,1.61-2.37,6.93,6.93,0,0,0,.59-2.87V49.42h-6V47.58h7.81V50.5Zm39.5.71a4.63,4.63,0,0,1-1.75-.35,5.33,5.33,0,0,1-1.48-1,4.28,4.28,0,0,1-1-1.39,3.77,3.77,0,0,1-.41-1.7,4.85,4.85,0,0,1,0-1.08,5,5,0,0,1,.41-1.7,5.19,5.19,0,0,1,1-1.39,4.26,4.26,0,0,1,1.48-.94,4.8,4.8,0,0,1,1.75-.36h6.68v1.84h-6.68a2.65,2.65,0,0,0-1.88.76,2.59,2.59,0,0,0-.85,1.84,3,3,0,0,0,0,.94,2.81,2.81,0,0,0,.85,1.84,2.74,2.74,0,0,0,1.88.76h2.69a4.6,4.6,0,0,1,1.75.36,5.16,5.16,0,0,1,1.48.94,4.46,4.46,0,0,1,1,1.39,3.79,3.79,0,0,1,.4,1.7V54.8a4.58,4.58,0,0,1-.36,1.79,4.63,4.63,0,0,1-1,1.44,5,5,0,0,1-1.48,1,4.8,4.8,0,0,1-1.79.35h-6.86V57.54h6.86a2.61,2.61,0,0,0,1.79-.68,2.5,2.5,0,0,0,.94-1.7V54a3,3,0,0,0-.85-2,2.7,2.7,0,0,0-2-.81h-2.65Z"/><path class="cls-3" d="M256.55,60.1h-.76a9,9,0,0,1-3.73-.74,10.52,10.52,0,0,1-3-2,9.49,9.49,0,0,1-2.76-6.75,9.2,9.2,0,0,1,.73-3.73,10.52,10.52,0,0,1,2-3,9.49,9.49,0,0,1,6.76-2.76,9.28,9.28,0,0,1,3.72.73,10.52,10.52,0,0,1,3,2,9.55,9.55,0,0,1,2.77,6.76V51a1.57,1.57,0,0,1-.06.52l-.05.16H248.61a7.44,7.44,0,0,0,.74,2.22,8.81,8.81,0,0,0,1.57,2,6.79,6.79,0,0,0,2.17,1.35,6.07,6.07,0,0,0,4.49.09,4.4,4.4,0,0,0,1.53-1.06l.16-.18,1.64,1.63-.17.16a6.74,6.74,0,0,1-2.27,1.53,6.88,6.88,0,0,1-2.11.52Zm-.76-18.57a9.06,9.06,0,0,0-6.43,2.63,10.15,10.15,0,0,0-1.93,2.89,9.3,9.3,0,0,0,0,7.08A8.69,8.69,0,0,0,249.36,57a10.15,10.15,0,0,0,2.89,1.93,8.35,8.35,0,0,0,2.73.67l-.09-.06h.76a6.65,6.65,0,0,0,4.61-1.79l-1-1a5,5,0,0,1-1.53,1,6.56,6.56,0,0,1-4.83-.08,7.46,7.46,0,0,1-2.32-1.44A9.41,9.41,0,0,1,249,54.15a7.78,7.78,0,0,1-.83-2.64l0-.26h16.75a1.62,1.62,0,0,0,0-.22v-.44a9.06,9.06,0,0,0-2.63-6.43,10,10,0,0,0-2.89-1.93A8.86,8.86,0,0,0,255.79,41.53ZM223.86,60a9,9,0,0,1-3.72-.74,10.52,10.52,0,0,1-3-2,9.55,9.55,0,0,1-2.77-6.75V42.34a9.22,9.22,0,0,1,.74-3.72,10.56,10.56,0,0,1,2-3,9.49,9.49,0,0,1,6.75-2.76,9.35,9.35,0,0,1,4.83,1.28,9.24,9.24,0,0,1,3.44,3.5l.11.19-2,1.18-.11-.21a7,7,0,0,0-2.6-2.65,7.06,7.06,0,0,0-3.66-1,6.73,6.73,0,0,0-2.82.57,6.83,6.83,0,0,0-2.25,1.56,7.26,7.26,0,0,0-2.09,5.09V50.5a6.59,6.59,0,0,0,.56,2.77,7.48,7.48,0,0,0,1.52,2.31A7.65,7.65,0,0,0,221,57.15a6.89,6.89,0,0,0,2.82.56,6.61,6.61,0,0,0,2.78-.56A7.92,7.92,0,0,0,229,55.58a7.58,7.58,0,0,0,1.56-2.31,6.6,6.6,0,0,0,.57-2.77v-.85h-6v-2.3h8.26V50.5a9.28,9.28,0,0,1-.73,3.72,10.52,10.52,0,0,1-2,3,9.06,9.06,0,0,1-3,2A9,9,0,0,1,223.86,60Zm0-26.72a9,9,0,0,0-6.42,2.62,10.15,10.15,0,0,0-1.93,2.89,8.88,8.88,0,0,0-.7,3.54V50.5a8.64,8.64,0,0,0,.7,3.54,8.83,8.83,0,0,0,1.93,2.89,10.19,10.19,0,0,0,2.89,1.92,9.17,9.17,0,0,0,10-1.92A10.3,10.3,0,0,0,232.22,54a9,9,0,0,0,.7-3.54V47.81h-7.35v1.38h6V50.5a7.19,7.19,0,0,1-.61,3,8,8,0,0,1-1.66,2.44,8.19,8.19,0,0,1-2.44,1.67,7.16,7.16,0,0,1-3,.6,7.27,7.27,0,0,1-3-.6,7.8,7.8,0,0,1-2.4-1.67,8.17,8.17,0,0,1-1.62-2.44,7.15,7.15,0,0,1-.6-3V42.34a7.2,7.2,0,0,1,.6-3,7.33,7.33,0,0,1,1.62-2.44,7.53,7.53,0,0,1,2.4-1.66,7.27,7.27,0,0,1,3-.6,7.41,7.41,0,0,1,3.89,1.06,7.31,7.31,0,0,1,2.65,2.62l1.22-.71a9,9,0,0,0-7.76-4.35ZM202.39,60a9.25,9.25,0,0,1-3.72-.73,10.7,10.7,0,0,1-3-2,9.49,9.49,0,0,1-2.76-6.76,9,9,0,0,1,.74-3.72,10.46,10.46,0,0,1,2-3,9.6,9.6,0,0,1,6.76-2.76,9.29,9.29,0,0,1,3.72.74,10.74,10.74,0,0,1,3,2,9.68,9.68,0,0,1,2,10.48,10.53,10.53,0,0,1-2,3A9.49,9.49,0,0,1,202.39,60Zm0-18.56A9.11,9.11,0,0,0,196,44,10.05,10.05,0,0,0,194,46.91,9.3,9.3,0,0,0,194,54,8.45,8.45,0,0,0,196,56.88a10.15,10.15,0,0,0,2.89,1.93,9.43,9.43,0,0,0,7.08,0,8.63,8.63,0,0,0,2.89-1.93A9.92,9.92,0,0,0,210.74,54a9.3,9.3,0,0,0,0-7.08A8.45,8.45,0,0,0,208.82,44a10.33,10.33,0,0,0-2.89-1.92A8.74,8.74,0,0,0,202.39,41.4ZM111.51,60a9,9,0,0,1-3.72-.74,10.46,10.46,0,0,1-3-2A9.6,9.6,0,0,1,102,50.45V42.29a9.29,9.29,0,0,1,.74-3.72,10.7,10.7,0,0,1,2-3,9.6,9.6,0,0,1,6.75-2.76,9.39,9.39,0,0,1,4.83,1.29,9.29,9.29,0,0,1,3.44,3.49l.11.2-2,1.17-.11-.2a7.24,7.24,0,0,0-9.08-3.09,7.14,7.14,0,0,0-2.26,1.56,7,7,0,0,0-1.52,2.31,6.68,6.68,0,0,0-.57,2.78v8.16a6.61,6.61,0,0,0,.57,2.78,7.42,7.42,0,0,0,1.52,2.3,7.3,7.3,0,0,0,2.26,1.57,6.73,6.73,0,0,0,2.82.56,6.61,6.61,0,0,0,2.78-.56,7.42,7.42,0,0,0,3.87-3.87,6.64,6.64,0,0,0,.57-2.78V49.6h-6V47.31H121v3.14a9.25,9.25,0,0,1-.73,3.72,10.56,10.56,0,0,1-2,3A9.49,9.49,0,0,1,111.51,60Zm0-26.72a9.11,9.11,0,0,0-6.43,2.62,10.26,10.26,0,0,0-1.92,2.89,8.74,8.74,0,0,0-.7,3.54v8.16a9.11,9.11,0,0,0,2.62,6.43A10.3,10.3,0,0,0,108,58.81a9.43,9.43,0,0,0,7.08,0,8.63,8.63,0,0,0,2.89-1.93A10.15,10.15,0,0,0,119.87,54a8.87,8.87,0,0,0,.69-3.54V47.77h-7.34v1.38h6v1.3a7.2,7.2,0,0,1-.6,3,8.1,8.1,0,0,1-1.66,2.44,8.29,8.29,0,0,1-2.44,1.66,7.07,7.07,0,0,1-3,.6,7.32,7.32,0,0,1-3-.6,7.68,7.68,0,0,1-4-4.1,7.07,7.07,0,0,1-.6-3V42.29a7.15,7.15,0,0,1,.6-3,7.35,7.35,0,0,1,1.61-2.45,7.53,7.53,0,0,1,2.4-1.66,7.32,7.32,0,0,1,3-.6,7.53,7.53,0,0,1,3.89,1.06,7.39,7.39,0,0,1,2.65,2.62l1.22-.71a9,9,0,0,0-7.76-4.35Zm75.37,26.59a4.82,4.82,0,0,1-1.88-.38,5.3,5.3,0,0,1-1.56-1,4.55,4.55,0,0,1-1-1.55A4.41,4.41,0,0,1,182,55V36.77h2.3v4.66h6.72v2.3h-6.72V55a2.55,2.55,0,0,0,.74,1.82,2.51,2.51,0,0,0,1.81.73,2.54,2.54,0,0,0,1.81-.75,2.44,2.44,0,0,0,.74-1.8v-.23h2.29V55a5,5,0,0,1-.37,1.88,4.55,4.55,0,0,1-1,1.55,5.53,5.53,0,0,1-1.55,1A4.16,4.16,0,0,1,186.88,59.83Zm-4.39-22.6V55a3.8,3.8,0,0,0,.34,1.7,4,4,0,0,0,.94,1.41,4.75,4.75,0,0,0,1.41.94,4.45,4.45,0,0,0,1.7.34,3.66,3.66,0,0,0,1.69-.34,4.92,4.92,0,0,0,1.43-1,4.11,4.11,0,0,0,.92-1.39,4.43,4.43,0,0,0,.34-1.48h-1.38a2.9,2.9,0,0,1-.87,1.9,3,3,0,0,1-2.13.88,2.93,2.93,0,0,1-2.14-.88,3,3,0,0,1-.87-2.13V43.27h6.72V41.89h-6.72V37.23Zm-39.33,22.6a9.29,9.29,0,0,1-3.72-.74,10.52,10.52,0,0,1-3-2,9.55,9.55,0,0,1-2.77-6.75,9.2,9.2,0,0,1,.74-3.73,10.66,10.66,0,0,1,2-3,9.49,9.49,0,0,1,6.75-2.76h.1l0,0a8.92,8.92,0,0,1,3.63.74,10.88,10.88,0,0,1,3,2,9.53,9.53,0,0,1,2.76,6.76v9.11h-2.34v-2.9a8.82,8.82,0,0,1-2.86,2.25A9.22,9.22,0,0,1,143.16,59.83Zm-.09-18.56a9,9,0,0,0-6.33,2.62,10.15,10.15,0,0,0-1.93,2.89,9.3,9.3,0,0,0,0,7.08,8.83,8.83,0,0,0,1.93,2.89,10.19,10.19,0,0,0,2.89,1.92,8.69,8.69,0,0,0,3.53.7,8.92,8.92,0,0,0,4.16-1,8.52,8.52,0,0,0,3.1-2.63l.42-.54V59h1.42V50.36a8.64,8.64,0,0,0-.7-3.54,8.45,8.45,0,0,0-1.92-2.89A10.26,10.26,0,0,0,146.75,42a8.64,8.64,0,0,0-3.54-.7h-.1ZM275.29,59.6H268.2V57.31h7.09a2.4,2.4,0,0,0,1.64-.62,2.32,2.32,0,0,0,.87-1.56V54a2.79,2.79,0,0,0-.79-1.82,2.47,2.47,0,0,0-1.8-.73h-1.66l.09,0h-1a4.68,4.68,0,0,1-1.83-.37,5.67,5.67,0,0,1-1.55-1,4.44,4.44,0,0,1-1-1.47,3.93,3.93,0,0,1-.42-1.79,4,4,0,0,1,0-1.1,5.06,5.06,0,0,1,.42-1.77,5.31,5.31,0,0,1,1-1.46,4.34,4.34,0,0,1,1.56-1,4.92,4.92,0,0,1,1.83-.38h6.91v2.3h-6.91a2.44,2.44,0,0,0-1.72.69,2.4,2.4,0,0,0-.78,1.69,2.72,2.72,0,0,0,0,.9,2.64,2.64,0,0,0,.78,1.71,2.48,2.48,0,0,0,1.72.69h2.65a4.82,4.82,0,0,1,1.88.38,5.23,5.23,0,0,1,1.54,1,4.58,4.58,0,0,1,1.05,1.47,4.09,4.09,0,0,1,.42,1.79V54.8a4.86,4.86,0,0,1-.38,1.88,4.72,4.72,0,0,1-1.09,1.52,4.85,4.85,0,0,1-3.42,1.4Zm-6.63-.46h6.63a4.46,4.46,0,0,0,3.12-1.28,4,4,0,0,0,1.31-3.06V53.72a3.59,3.59,0,0,0-.38-1.6,4.3,4.3,0,0,0-.94-1.33A5.09,5.09,0,0,0,277,49.9a4.4,4.4,0,0,0-1.66-.34h-2.69a3,3,0,0,1-2-.82,3.08,3.08,0,0,1-.92-2,3.29,3.29,0,0,1,0-1,3,3,0,0,1,3-2.8h6.45V41.58h-6.45a4.44,4.44,0,0,0-1.66.34,4.09,4.09,0,0,0-1.4.89,5.24,5.24,0,0,0-.95,1.33,5.07,5.07,0,0,0-.38,1.62,4.42,4.42,0,0,0,0,1,3.72,3.72,0,0,0,.38,1.63,4.12,4.12,0,0,0,.95,1.33,4.82,4.82,0,0,0,1.4.89,4.11,4.11,0,0,0,1.06.3h3.16a3,3,0,0,1,2.13.87,3.28,3.28,0,0,1,.92,2.13v1.22a2.77,2.77,0,0,1-1,1.88,2.84,2.84,0,0,1-1.94.72h-6.63Zm-30.72.46h-2.07V50.5a9.2,9.2,0,0,1,.74-3.73,10.52,10.52,0,0,1,2-3,9,9,0,0,1,3-2,9.07,9.07,0,0,1,3.71-.73h.23v2.34h-.23a6.59,6.59,0,0,0-2.77.56,7.6,7.6,0,0,0-2.31,1.52,7.2,7.2,0,0,0-1.56,2.31,6.73,6.73,0,0,0-.57,2.82v8.88h-.23Zm-1.61-.46h1.38v-8.6a7.29,7.29,0,0,1,.61-3A7.45,7.45,0,0,1,240,45.09a8.17,8.17,0,0,1,2.44-1.62,7.21,7.21,0,0,1,2.73-.6V41.45a8.38,8.38,0,0,0-3.3.69A8.63,8.63,0,0,0,239,44.07,10,10,0,0,0,237,47a8.57,8.57,0,0,0-.7,3.54ZM179,59.6h-2.3V41.35H179Zm-1.84-.46h1.38V41.8H177.2Zm-51.61.42h-2.07V50.45a9,9,0,0,1,.74-3.72,10.88,10.88,0,0,1,2-3A9.6,9.6,0,0,1,133,40.94h.23v2.34H133a6.6,6.6,0,0,0-2.77.57A7.48,7.48,0,0,0,128,45.37a7.35,7.35,0,0,0-1.57,2.3,6.91,6.91,0,0,0-.56,2.83v8.87h-.23ZM124,59.1h1.38V50.5a7.29,7.29,0,0,1,.6-3,7.53,7.53,0,0,1,4.11-4.06,6.82,6.82,0,0,1,2.73-.6V41.4A9.12,9.12,0,0,0,126.6,44a10.26,10.26,0,0,0-1.92,2.89,8.64,8.64,0,0,0-.7,3.54Zm50.35.41H172v-9.1a7,7,0,0,0-.56-2.83,7.54,7.54,0,0,0-1.52-2.3,6.41,6.41,0,0,0-2.3-1.52,6.81,6.81,0,0,0-2.83-.57,6.61,6.61,0,0,0-2.78.57,7.54,7.54,0,0,0-2.3,1.52,7.19,7.19,0,0,0-1.57,2.3,6.94,6.94,0,0,0-.56,2.83v9.1h-2.3v-9.1a9,9,0,0,1,.74-3.73,10.42,10.42,0,0,1,2-3,9.49,9.49,0,0,1,6.76-2.76,9.28,9.28,0,0,1,3.72.73,10.7,10.7,0,0,1,3,2,9.49,9.49,0,0,1,2.76,6.76Zm-1.84-.46h1.38V50.41A9.11,9.11,0,0,0,171.25,44a10.3,10.3,0,0,0-2.89-1.93,8.9,8.9,0,0,0-3.54-.69A9,9,0,0,0,158.39,44a9.92,9.92,0,0,0-1.92,2.89,8.61,8.61,0,0,0-.7,3.54v8.64h1.38V50.41a7.29,7.29,0,0,1,.6-3,7.53,7.53,0,0,1,4.11-4.06,7,7,0,0,1,3-.6,7.29,7.29,0,0,1,3,.6A6.91,6.91,0,0,1,170.27,45a8.22,8.22,0,0,1,1.62,2.45,7.59,7.59,0,0,1,.6,3Zm29.9-.88a7.29,7.29,0,0,1-3-.61A7.89,7.89,0,0,1,197,55.9a8,8,0,0,1-1.61-2.44,7,7,0,0,1-.61-3,7.29,7.29,0,0,1,.61-3A7,7,0,0,1,197,45a7.67,7.67,0,0,1,5.41-2.22,7.15,7.15,0,0,1,3,.61A7.25,7.25,0,0,1,207.8,45a8.4,8.4,0,0,1,1.66,2.45,7.59,7.59,0,0,1,.6,3,7.18,7.18,0,0,1-.6,3,8.35,8.35,0,0,1-1.66,2.44,8,8,0,0,1-2.45,1.66A7,7,0,0,1,202.39,58.17Zm0-14.89a6.73,6.73,0,0,0-2.82.57,6.85,6.85,0,0,0-2.26,1.51,6.59,6.59,0,0,0-1.52,2.3,6.86,6.86,0,0,0-.57,2.84,6.75,6.75,0,0,0,.56,2.77,7.34,7.34,0,0,0,3.79,3.88,6.89,6.89,0,0,0,2.82.56,6.72,6.72,0,0,0,2.77-.56,7.79,7.79,0,0,0,2.31-1.57A7.61,7.61,0,0,0,209,53.27a6.75,6.75,0,0,0,.56-2.77,7,7,0,0,0-.56-2.83,7.56,7.56,0,0,0-1.57-2.3,7.37,7.37,0,0,0-5.08-2.09Zm-59.18,14.8a7,7,0,0,1-3-.61,8,8,0,0,1-2.45-1.66,8.16,8.16,0,0,1-1.66-2.44,7.15,7.15,0,0,1-.6-3,7.29,7.29,0,0,1,.6-3A7.93,7.93,0,0,1,137.8,45a8.9,8.9,0,0,1,2.45-1.61,7,7,0,0,1,3-.6,7.29,7.29,0,0,1,3,.6A6.91,6.91,0,0,1,148.66,45a8.22,8.22,0,0,1,1.62,2.45,7.59,7.59,0,0,1,.6,3,7.75,7.75,0,0,1-2.22,5.4,8,8,0,0,1-2.44,1.66A7.43,7.43,0,0,1,143.21,58.08Zm0-14.89a6.64,6.64,0,0,0-2.78.57,8.65,8.65,0,0,0-2.31,1.52,7.32,7.32,0,0,0-1.56,2.3,6.94,6.94,0,0,0-.56,2.83,6.59,6.59,0,0,0,.56,2.77,7.61,7.61,0,0,0,1.57,2.31,7.74,7.74,0,0,0,2.3,1.57,7.22,7.22,0,0,0,5.6,0,7.7,7.7,0,0,0,2.31-1.56,6.94,6.94,0,0,0,1.52-2.3,6.83,6.83,0,0,0,.56-2.78,7,7,0,0,0-.56-2.83,7.54,7.54,0,0,0-1.52-2.3,6.41,6.41,0,0,0-2.3-1.52A6.81,6.81,0,0,0,143.21,43.19Zm120,6.68h-15l0-.25A6.55,6.55,0,0,1,249,47a7.44,7.44,0,0,1,1.66-2.12A7.18,7.18,0,0,1,253,43.42a7.89,7.89,0,0,1,5.54,0,7.69,7.69,0,0,1,2.31,1.43A9.58,9.58,0,0,1,262.53,47a8.09,8.09,0,0,1,.84,2.64l-.19,0Zm-14.49-.45h14.18a7.44,7.44,0,0,0-.74-2.22,8.88,8.88,0,0,0-1.57-2,7,7,0,0,0-2.16-1.34,7.44,7.44,0,0,0-5.22,0A6.65,6.65,0,0,0,251,45.19a7.16,7.16,0,0,0-1.57,2A5.9,5.9,0,0,0,248.69,49.42ZM179,35.93h-2.3V32.47H179Zm-1.84-.46h1.38V32.93H177.2Z"/><path class="cls-2" d="M283.67,42.83V37.36h-2v-.72h4.89v.72h-2v5.47h-.85Zm3.68,0V36.64h1.21L290,41a8.3,8.3,0,0,0,.31.89c.09-.22.18-.54.32-1l1.48-4.31h1.07v6.19h-.81V37.67l-1.79,5.16h-.72l-1.79-5.25v5.25h-.76Z"/><path class="cls-2" d="M218.25,75.62h7.63l.28-1.29h-6.09L222.2,64.1h-1.53l-2.42,11.52Zm8.78,0h1.37l1.74-8.34h-1.37L227,75.62Zm3.79-11.52h-1.39l-.35,1.68h1.38l.36-1.68Zm.24,11.52h1.37L234,68.49h1.62l.22-1.21h-1.59c.32-1,.24-2.1,1.61-2.1a3.61,3.61,0,0,1,.65.08l.22-1.16a4.86,4.86,0,0,0-1.14-.13c-2.2,0-2.26,1.62-2.7,3.31h-1.42l-.24,1.21h1.42l-1.55,7.13Zm6.18-5a3,3,0,0,1,2.89-2.35,1.93,1.93,0,0,1,2,2.35Zm6.08,1.21h-6.27a4.56,4.56,0,0,0-.05.73,2,2,0,0,0,2.16,2,2.37,2.37,0,0,0,2.4-1.6h1.38a3.65,3.65,0,0,1-3.78,2.81,3.19,3.19,0,0,1-3.53-3.36c0-3.19,2-5.37,4.29-5.37,2.45,0,3.53,1.34,3.53,3.69a5.1,5.1,0,0,1-.13,1.08Zm7.91-2.13c0-2-1.6-2.64-3.15-2.64s-3.09.85-3.09,2.4c0,1.26,1.09,1.82,2.21,2.26s2.19.77,2.19,1.58-1,1.28-1.9,1.28c-1.15,0-2.2-.37-2.13-1.62H244c0,2.13,1.46,2.83,3.37,2.83,1.61,0,3.4-.73,3.4-2.59,0-1.3-1.11-1.88-2.21-2.34s-2.19-.75-2.19-1.53.93-1.06,1.77-1.06,1.79.48,1.73,1.43ZM256,64.81H254.6l-.51,2.47h-1.41l-.26,1.21h1.41l-1.1,5.18a3.4,3.4,0,0,0-.08.69c0,1.07.86,1.36,1.87,1.36a4.57,4.57,0,0,0,1-.1l.24-1.26a2.63,2.63,0,0,1-.79.15c-.42,0-.82-.13-.82-.57a4.93,4.93,0,0,1,0-.54l1-4.91h1.66l.26-1.21h-1.66l.51-2.47Zm.92,10.81,1.75-8.34H260l-1.74,8.34Zm3.8-11.52H259.3l-.36,1.68h1.39l.36-1.68Zm-.21,11.52L262.9,64.1h1.37l-2.42,11.52Zm5.43-5a3,3,0,0,1,2.89-2.35,1.93,1.93,0,0,1,1.95,2.35ZM272,71.86a5.86,5.86,0,0,0,.13-1.08c0-2.35-1.09-3.69-3.54-3.69-2.29,0-4.29,2.18-4.29,5.37a3.19,3.19,0,0,0,3.53,3.36A3.64,3.64,0,0,0,271.61,73h-1.37a2.38,2.38,0,0,1-2.41,1.6,2,2,0,0,1-2.16-2,6.11,6.11,0,0,1,.05-.73Zm7.9-2.13c0-2-1.59-2.64-3.14-2.64s-3.1.85-3.1,2.4c0,1.26,1.1,1.82,2.21,2.26s2.19.77,2.19,1.58-1,1.28-1.9,1.28C275,74.61,274,74.24,274,73h-1.37c0,2.13,1.47,2.83,3.37,2.83,1.61,0,3.41-.73,3.41-2.59,0-1.3-1.12-1.88-2.22-2.34S275,70.14,275,69.36s.94-1.06,1.77-1.06,1.8.48,1.73,1.43Z"/><rect class="cls-4" x="102.23" y="67.88" width="33.91" height="6.09"/><rect class="cls-5" x="139.84" y="67.88" width="33.91" height="6.09"/><rect class="cls-6" x="177.46" y="67.88" width="33.91" height="6.09"/><path class="cls-2" d="M43.1,31.71H78.6S59.1,18,55.35,16.5a6.54,6.54,0,0,0-7.72,2C46.3,20.09,36.4,34.21,36.4,34.21,37.64,33,41.7,31.71,43.1,31.71Z"/><path class="cls-2" d="M87.34,49a13.18,13.18,0,0,0,3.82-5.15c.47-1.48-.7-3.19-2-4.21S79.3,32.1,79.3,32.1l-6.79,8.43H31.64S19.86,57.22,19.16,58.08s-2.34,3.28-2.11,5.07,1.87,2.5,2.57,2.89,7.34,3.59,8,3.9a7.91,7.91,0,0,1-1.72-7.18c1-4.6,4.68-19.42,4.68-19.42h10s-2,6.86-2.65,10S36.4,59.17,36.47,61s2,2.42,3.36,2.57,19-.08,19.5-.08a5.1,5.1,0,0,0,3.9-3.19,9.92,9.92,0,0,0,.94-3.75l-15.6.16-3.13-8.9H76L72.28,63.7S85.85,50.44,87.49,49Z"/><path class="cls-2" d="M54.26,80.63c1.79-1.49,9.52-9.13,9.52-9.13a9.4,9.4,0,0,1-3.59.86c-1.41,0-21.45.07-24.42,0A17.1,17.1,0,0,1,31.64,72c4.68,2.5,12.56,6.95,15.21,8.82A5.93,5.93,0,0,0,54.26,80.63Z"/></g></g></svg>