<svg width="682" height="682.66669" xmlns="http://www.w3.org/2000/svg">

 <g>
  <title>background</title>
  <rect fill="none" id="canvas_background" height="602" width="802" y="-1" x="-1"/>
 </g>
 <g>
  <title>Layer 1</title>
  <path fill="#c1c1c1" id="svg_1" d="m308.21094,8c-122.66406,0 -222.46094,99.79688 -222.46094,222.46094c0,154.17578 222.67969,417.53906 222.67969,417.53906s222.24219,-270.94531 222.24219,-417.53906c0,-122.66406 -99.79297,-222.46094 -222.46094,-222.46094zm67.12109,287.59766c-18.50781,18.5039 -42.8125,27.75781 -67.12109,27.75781c-24.30469,0 -48.61719,-9.25391 -67.11719,-27.75781c-37.01172,-37.00782 -37.01172,-97.22657 0,-134.23829c17.92188,-17.92968 41.76172,-27.80468 67.11719,-27.80468c25.35547,0 49.1914,9.8789 67.12109,27.80468c37.01172,37.01172 37.01172,97.23047 0,134.23829zm0,0"/>
 </g>
</svg>