<?xml version="1.0" encoding="utf-8"?>
<!-- Generator: Adobe Illustrator 24.1.0, SVG Export Plug-In . SVG Version: 6.00 Build 0)  -->
<svg version="1.1" id="Layer_1" xmlns="http://www.w3.org/2000/svg" xmlns:xlink="http://www.w3.org/1999/xlink" x="0px" y="0px"
	 viewBox="0 0 28.6 28.8" style="enable-background:new 0 0 28.6 28.8;" xml:space="preserve">
<style type="text/css">
	.st0{fill:#FFFFFF;}
</style>
<g id="Layer_2_1_">
	<g id="Layer_1-2">
		<g>
			<polygon class="st0" points="0,28.8 0,0 20.4,0 18.7,1.6 1.6,1.6 1.6,27.1 20.2,27.1 20.2,14.3 21.9,12.7 21.9,28.8 			"/>
		</g>
		<g>
			<rect x="5" y="5.2" class="st0" width="10.4" height="1.6"/>
		</g>
		<g>
			<rect x="5" y="10.3" class="st0" width="3.7" height="1.6"/>
		</g>
		<g>
			<path class="st0" d="M6.8,20.4L26.5,0.6c0.2-0.2,0.6-0.2,0.8,0l1.1,1.1c0.2,0.2,0.2,0.6,0,0.8L8.6,22.2l-0.1,0L5.3,24
				c-0.1,0-0.2,0-0.2-0.1c0,0,0-0.1,0-0.2l1.7-3.3L6.8,20.4z"/>
		</g>
	</g>
</g>
</svg>
