<svg xmlns="http://www.w3.org/2000/svg" viewBox="0 0 23.22 23.22"><defs><style>.cls-1{fill:#209944;}</style></defs><g id="Layer_2" data-name="Layer 2"><g id="Layer_1-2" data-name="Layer 1"><path class="cls-1" d="M11.61,23.22A11.61,11.61,0,1,1,23.22,11.61,11.61,11.61,0,0,1,11.61,23.22Zm0-21.77A10.16,10.16,0,1,0,21.77,11.61,10.16,10.16,0,0,0,11.61,1.45Z"/><path class="cls-1" d="M8,17.42a.72.72,0,0,1-.51-.22l-2.9-2.9a.72.72,0,0,1,1-1L8,15.66l9-9a.73.73,0,0,1,1,1L8.5,17.2A.74.74,0,0,1,8,17.42Z"/></g></g></svg>