<svg xmlns="http://www.w3.org/2000/svg" viewBox="0 0 343.97 92.57"><defs><style>.cls-1,.cls-2{fill:#010101;}.cls-2{font-size:18.57px;font-family:PalatinoLinotype-Roman, Palatino Linotype;letter-spacing:0.1em;}</style></defs><g id="Layer_2" data-name="Layer 2"><g id="Layer_1-2" data-name="Layer 1"><polygon class="cls-1" points="27.08 54.13 5.89 0.92 0 0.92 25.07 63.98 28.96 63.98 54.14 0.93 48.3 0.83 27.08 54.13"/><rect class="cls-1" x="59.38" y="0.92" width="5.81" height="62.23"/><path class="cls-1" d="M120.91,52.43a24.58,24.58,0,0,1-7.74,4.36,27.51,27.51,0,0,1-9.23,1.58,24.9,24.9,0,0,1-13-3.55,25.58,25.58,0,0,1-9.24-9.6,27.17,27.17,0,0,1-3.35-13.28,27.27,27.27,0,0,1,3.35-13.29A25.66,25.66,0,0,1,90.92,9a24.66,24.66,0,0,1,13-3.56A27.21,27.21,0,0,1,113.16,7a24.61,24.61,0,0,1,7.74,4.39l.86.72,3.5-4.09-.89-.73A32.9,32.9,0,0,0,114.88,2a31.51,31.51,0,0,0-10.94-2A30.84,30.84,0,0,0,81.76,9.4a32.3,32.3,0,0,0-6.49,10.18,33.38,33.38,0,0,0,1.66,28.34,30.51,30.51,0,0,0,27,15.88,32.38,32.38,0,0,0,20.43-7.33l.89-.73-3.51-4Z"/><polygon class="cls-1" points="139.03 34.94 161.43 34.94 161.43 29.13 139.03 29.13 139.03 5.9 173.88 5.9 173.88 0.92 133.22 0.92 133.22 63.15 177.19 63.15 177.19 57.34 139.03 57.34 139.03 34.94"/><path class="cls-1" d="M247.27,59.52a30.79,30.79,0,0,0,31.32,0,31.3,31.3,0,0,0,11.35-11.61,32.65,32.65,0,0,0,1.7-28.34A32.27,32.27,0,0,0,285,9.39a31.62,31.62,0,0,0-9.95-6.84,30.2,30.2,0,0,0-24.29,0,31.44,31.44,0,0,0-9.91,6.84,32.81,32.81,0,0,0-9,22.55,32.16,32.16,0,0,0,4.13,16A31.32,31.32,0,0,0,247.27,59.52Zm-6.58-40.84A26,26,0,0,1,250,9a25,25,0,0,1,22.89-1.46,25.82,25.82,0,0,1,8.21,5.66,27.19,27.19,0,0,1,5.48,8.46,26.75,26.75,0,0,1,0,20.54,27,27,0,0,1-5.5,8.45,25.81,25.81,0,0,1-8.21,5.63,24.92,24.92,0,0,1-20,0,25.26,25.26,0,0,1-8.16-5.63,27.07,27.07,0,0,1-5.45-8.45,27.21,27.21,0,0,1,1.39-23.52Z"/><path class="cls-1" d="M337.67.92l-26,41.81a50.07,50.07,0,0,0,1.16-10.68A49.1,49.1,0,0,0,302.15,1.31l-.34-.39h-7.43l1.67,1.82a44.11,44.11,0,0,1,.52,58l0,0h0A44.12,44.12,0,0,1,263,76.25a45,45,0,0,1-33.29-15.11,93.08,93.08,0,0,1-6.86-10c-1.54-2.71-6.63-10.6-6.81-10.83a17,17,0,0,0-3.32-3.53q1-.18,2-.42c.5-.14,1-.27,1.48-.43a17.16,17.16,0,0,0,2-.75,11.9,11.9,0,0,0,2.81-1.64,17.7,17.7,0,0,0,5.19-6.39,17.89,17.89,0,0,0,1.79-7.81,17.39,17.39,0,0,0-1.39-6.87,18.61,18.61,0,0,0-4-5.89,18.74,18.74,0,0,0-6.77-4.16A25.82,25.82,0,0,0,206.6.92H184.66V63.15h5V38.26h7.24c1.92,0,3.26-.17,4.23-.11a25.49,25.49,0,0,1,3.31.31,9.91,9.91,0,0,1,2.76.85A11.3,11.3,0,0,1,209.5,41a15.41,15.41,0,0,1,2.32,2.83c0,.06,4,5.86,5.37,8.33L219,55.4a49.79,49.79,0,0,0,81.77,9.09l0,0a118.9,118.9,0,0,0,14.81-17.89l5.68-8.34L344,.92Zm-131,31.53h-17V5.9h17a20.12,20.12,0,0,1,7.06,1.32,13.3,13.3,0,0,1,4.94,3.09,13.63,13.63,0,0,1,2.84,4.23,12,12,0,0,1,0,9.36,14.16,14.16,0,0,1-2.76,4.22,12.18,12.18,0,0,1-4.37,2.7c-.11.06-.57.23-.57.23A20.08,20.08,0,0,1,206.67,32.45Z"/><text class="cls-2" transform="translate(47.34 87.16)">THE SUPERIOR</text></g></g></svg>