<svg xmlns="http://www.w3.org/2000/svg" viewBox="0 0 797.09 425.73"><defs><style>.cls-1{fill:#ec2027;}</style></defs><g id="Layer_2" data-name="Layer 2"><g id="Layer_1-2" data-name="Layer 1"><g id="ABC_logo" data-name="ABC logo"><path class="cls-1" d="M133,154.4A132.46,132.46,0,0,1,215,182.63c9.46,8.13,19.13,15.63,26.77,24.72l78.8,93.81c12.76,15.21,30.27,39,46.64,49.49a75.06,75.06,0,1,0-12.61-116.28A75.46,75.46,0,0,0,345,246c-21.85-26.64-45.08-53.47-67-79.84V38.63L333.54,0V170.63a138.31,138.31,0,0,1,171.87,19c14.09,14.09,25.63,31.93,38,47.61l52,65.85c16.84,21.33,32.06,44.15,57.66,55.91,27.43,12.61,59.25,10.12,85.9-14.81a80.19,80.19,0,0,0,19.76-32.44l38.31,42.79a133.66,133.66,0,0,1-20.8,26.93c-64,64-151.5,41.38-207.54-20.89l-29-32.22a138.51,138.51,0,0,1-132.15,97.35c-46.77,0-81.3-21.69-108.82-57.38l-103.74-132a80.69,80.69,0,0,0-62-29.3c-44.06,0-80.32,36.27-80.32,80.32S89,367.73,133,367.73a80,80,0,0,0,53.65-20.55l33.5,40.73C167.89,433.32,88,430.55,39,381.48A132.66,132.66,0,0,1,0,287.41c0-72.93,60.06-133,133-133m549.19,0a132.62,132.62,0,0,1,94.06,39c1.63,1.62,3.2,3.29,4.75,5L743.09,235q-2-2.26-4.08-4.4a80.32,80.32,0,0,0-113.58,0A81.34,81.34,0,0,0,616,242l-34.24-41.74q3.09-3.57,6.43-6.91a132.64,132.64,0,0,1,94.06-39"/></g></g></g></svg>