<svg xmlns="http://www.w3.org/2000/svg" viewBox="0 0 56.08 56.06"><g id="Layer_2" data-name="Layer 2"><g id="Layer_1-2" data-name="Layer 1"><path d="M50.84,28.39h-2a5,5,0,0,0,.9-2.86v-.72a5.06,5.06,0,0,0-10.11,0v.72a5,5,0,0,0,.8,2.71,8.75,8.75,0,0,1-7.12-8.59v-.52a3.18,3.18,0,0,0-4.15-3V10.59l11.33-4.1a1.1,1.1,0,0,0,0-2.06L28.41.07a1.05,1.05,0,0,0-1,.13,1.1,1.1,0,0,0-.47.9v15a3,3,0,0,0-.86-.15,3.13,3.13,0,0,0-2.31.88,3.19,3.19,0,0,0-1,2.28v.52a8.75,8.75,0,0,1-7.12,8.59,5,5,0,0,0,.79-2.71v-.72a5,5,0,0,0-10.1,0v.72a5,5,0,0,0,.9,2.86h-2A5.25,5.25,0,0,0,0,33.63V46.09a3.46,3.46,0,0,0,3.45,3.45,1.1,1.1,0,1,0,0-2.19,1.26,1.26,0,0,1-1.26-1.26V33.63a3.06,3.06,0,0,1,3.05-3.05h8.82A10.94,10.94,0,0,0,25,19.65v-.52a1,1,0,0,1,1-1,1,1,0,0,1,.94,1v.47A12.9,12.9,0,0,1,17.38,32.1a1.09,1.09,0,0,0-.81,1.06v10.3H6.33V34.15a1.1,1.1,0,0,0-2.19,0V44.56a1.09,1.09,0,0,0,1.1,1.09h.13V55a1.1,1.1,0,0,0,2.19,0V45.65h7.75V55a1.1,1.1,0,0,0,2.19,0V45.65h.16a1.09,1.09,0,0,0,1.1-1.09V34a15.1,15.1,0,0,0,8.18-6.51V39a1.1,1.1,0,1,0,2.19,0V27.47A15.12,15.12,0,0,0,37.32,34V44.56a1.09,1.09,0,0,0,1.1,1.09h.16V55a1.1,1.1,0,0,0,2.19,0V45.65h7.75V55a1.1,1.1,0,0,0,2.19,0V45.65h.13a1.09,1.09,0,0,0,1.1-1.09V34.15a1.1,1.1,0,0,0-2.19,0v9.31H39.51V33.16a1.09,1.09,0,0,0-.81-1.06,12.9,12.9,0,0,1-9.57-12.45v-.47a1,1,0,0,1,.94-1,1,1,0,0,1,1,1v.52A10.94,10.94,0,0,0,42,30.58h8.82a3.06,3.06,0,0,1,3,3.05v1.88a1.1,1.1,0,0,0,2.19,0V33.63A5.25,5.25,0,0,0,50.84,28.39ZM8.56,24.81a2.86,2.86,0,0,1,5.72,0v.72a2.86,2.86,0,0,1-5.72,0ZM29.13,2.66l7.74,2.8-7.74,2.8V2.66ZM41.79,24.81a2.87,2.87,0,0,1,5.73,0v.72a2.87,2.87,0,0,1-5.73,0Z"/></g></g></svg>