<svg xmlns="http://www.w3.org/2000/svg" viewBox="0 0 92.53 60.87"><defs><style>.cls-1,.cls-2{fill:none;stroke:#fff;stroke-miterlimit:10;}.cls-2{stroke-linecap:round;}</style></defs><g id="Layer_2" data-name="Layer 2"><g id="Layer_1-2" data-name="Layer 1"><rect class="cls-1" x="0.5" y="0.5" width="91.53" height="59.87" rx="1.51"/><path class="cls-1" d="M33.31,10.79H48.54A3.09,3.09,0,0,1,51.42,14V49.68a3.08,3.08,0,0,1-2.88,3.25H10.36a3.08,3.08,0,0,1-2.88-3.25V14a3.09,3.09,0,0,1,2.88-3.25h16.2"/><line class="cls-2" x1="60.54" y1="27.75" x2="81.64" y2="27.75"/><line class="cls-2" x1="60.54" y1="19.36" x2="81.64" y2="19.36"/><line class="cls-2" x1="60.54" y1="36.15" x2="81.64" y2="36.15"/><line class="cls-2" x1="60.54" y1="44.54" x2="81.64" y2="44.54"/><path class="cls-1" d="M26.56,7.3H31a0,0,0,0,1,0,0v17a2.21,2.21,0,0,1-2.21,2.21h0a2.21,2.21,0,0,1-2.21-2.21V7.3a0,0,0,0,1,0,0Z"/><rect class="cls-1" x="30.98" y="8.81" width="2.33" height="3.97"/></g></g></svg>