<svg xmlns="http://www.w3.org/2000/svg" viewBox="0 0 59.21 58.24"><g id="Layer_2" data-name="Layer 2"><g id="Layer_1-2" data-name="Layer 1"><path d="M37.19,28.88A15.66,15.66,0,1,0,13.7,42.43v2.29a2.91,2.91,0,0,0-1.94,2.43A2.94,2.94,0,0,0,13.11,50a2.9,2.9,0,0,0,1.65,4.22,4.9,4.9,0,0,0,4.81,4.07h3.92a4.9,4.9,0,0,0,4.81-4.07A2.89,2.89,0,0,0,29.94,50a2.91,2.91,0,0,0-.58-5.23V42.43a15.63,15.63,0,0,0,7.83-13.55Zm-29.36,0A13.7,13.7,0,1,1,27.92,41a1,1,0,0,0-.52.87v2.67H15.66V41.86a1,1,0,0,0-.52-.87A13.68,13.68,0,0,1,7.83,28.88Zm6.85,17.61h13.7a1,1,0,1,1,0,2H14.68a1,1,0,1,1,0-2Zm8.81,9.79H19.57a2.93,2.93,0,0,1-2.75-2h9.42a2.93,2.93,0,0,1-2.75,2Zm3.91-3.92H15.66a1,1,0,1,1,0-2H27.4a1,1,0,1,1,0,2Z"/><path d="M22.51,31.81h-2a1,1,0,0,1-1-1h-2a2.94,2.94,0,0,0,2.94,2.94v1h2v-1a2.94,2.94,0,0,0,0-5.87h-2a1,1,0,0,1,0-2h2a1,1,0,0,1,1,1h2A2.94,2.94,0,0,0,22.51,24V23h-2v1a2.94,2.94,0,0,0,0,5.88h2a1,1,0,1,1,0,1.95Z"/><rect x="27.4" y="27.9" width="1.96" height="1.96"/><rect x="13.7" y="27.9" width="1.96" height="1.96"/><rect x="20.55" y="7.35" width="1.96" height="3.91"/><path d="M5.61,14.35,7,13l2.77,2.77L8.38,17.11Z"/><rect y="27.9" width="3.91" height="1.96"/><path d="M5.61,43.41l2.77-2.77L9.77,42,7,44.79Z"/><path d="M57.05,36.14a2.88,2.88,0,0,0-1.06-1,2.94,2.94,0,0,0,.09-2.54,2.89,2.89,0,0,0-1.93-1.66,2.81,2.81,0,0,0-1.29,0l-1.14-2A15.66,15.66,0,0,0,25.64,11.65l1.56,1.17A13.7,13.7,0,0,1,49.76,28.34a1,1,0,0,0,0,1l1.34,2.32L40.91,37.54l-1.34-2.32a1,1,0,0,0-.88-.49,11.38,11.38,0,0,1-1.43,0l-.13,2c.34,0,.69,0,1,0l1.14,2a2.92,2.92,0,0,0,2.11,4.82,2.88,2.88,0,0,0,2.16,2.81,2.65,2.65,0,0,0,1.37,0,4.89,4.89,0,0,0,6.21,1.11l3.39-2a4.91,4.91,0,0,0,2.13-5.93,3,3,0,0,0,.37-3.43ZM40.68,41.07A1,1,0,0,1,41,39.73L52.9,32.88a1,1,0,0,1,.49-.13,1.09,1.09,0,0,1,.26,0,1,1,0,0,1,.23,1.79l-11,6.36-.84.49a1,1,0,0,1-1.34-.35ZM43.49,44a1,1,0,0,1,.35-1.34L54,36.76a1,1,0,1,1,1,1.69L44.82,44.32A1,1,0,0,1,43.49,44Zm10.07-.17-3.39,2a2.93,2.93,0,0,1-3.36-.32L55,40.73a2.93,2.93,0,0,1-1.41,3.07Z"/><path d="M26.55,2.89l1.7-1L30.2,5.3l-1.69,1Z"/><path d="M54.93,26.55l.5-1.89,3.78,1-.5,1.9Z"/><path d="M52.93,11.39l3.39-2,1,1.69-3.39,2Z"/><path d="M41.78,3.78l1-3.78,1.89.51-1,3.78Z"/></g></g></svg>