<svg xmlns="http://www.w3.org/2000/svg" viewBox="0 0 48.89 54.42"><g id="Layer_2" data-name="Layer 2"><g id="Layer_1-2" data-name="Layer 1"><path d="M1.06,54.42H47.83a1.07,1.07,0,0,0,1.06-1.07c0-6.56-4.26-12.74-10.14-14.7L33.7,37l-1.81-3.63A11.63,11.63,0,0,0,35,27.18l.23-1.35H37.2a3.19,3.19,0,0,0,3.19-3.19v-6.7a15.95,15.95,0,0,0-31.89,0v6.7a3.18,3.18,0,0,0,2.13,3v1.25a3.19,3.19,0,0,0,3.19,3.19h.93a11.63,11.63,0,0,0,1.78,2.76c.15.17.31.34.47.5L15.19,37l-5,1.68C4.26,40.61,0,46.79,0,53.35A1.07,1.07,0,0,0,1.06,54.42Zm23.39-3.08L23,49A.35.35,0,0,0,23,49a39,39,0,0,1-2.39-3.57l3.79-4,4,4A38,38,0,0,1,25.94,49C25.89,49,26,48.91,24.45,51.34Zm5-7.91-3.61-3.61L30.35,35l1.45,2.89A41.56,41.56,0,0,1,29.42,43.43Zm-5.11-5.11-2.08-2.08a10.34,10.34,0,0,0,2.22.24,10,10,0,0,0,1.73-.15Zm-5.95-2.94,4.48,4.49-3.37,3.56a42.72,42.72,0,0,1-2.38-5.52ZM46.72,52.29H26.36l1.31-2.1a44.06,44.06,0,0,0,2.93-4.47v0h0a42.54,42.54,0,0,0,3-6.5l4.47,1.49C42.8,42.24,46.3,47,46.72,52.29Zm-35-28.59a1.07,1.07,0,0,1-1.06-1.06V17h2.16c0,.11,0,.22,0,.33h0c.07,2.14.25,4.3.51,6.35ZM34,15.92h0l-1.33-.19a17,17,0,0,1-9.6-4.8,1.06,1.06,0,0,0-.75-.31,9.6,9.6,0,0,0-7.39,3.5,8.63,8.63,0,0,1,8.56-7.75H25.4A8.64,8.64,0,0,1,34,15C34,15.36,34,15.66,34,15.92Zm4.26,6.72A1.06,1.06,0,0,1,37.2,23.7H35.58c.27-2.09.45-4.32.52-6.51a1.09,1.09,0,0,1,0-.18h2.15ZM24.45,2.13A13.83,13.83,0,0,1,38.22,14.88H36.14A10.77,10.77,0,0,0,25.4,4.25H23.49A10.76,10.76,0,0,0,12.76,14.88H10.67A13.81,13.81,0,0,1,24.45,2.13ZM12.75,26.89V25.83h.88l.22,1.35c0,.26.1.52.16.77h-.19A1.06,1.06,0,0,1,12.75,26.89Zm6.56,3.19a3.19,3.19,0,0,0,3,2.12h2.13a3.19,3.19,0,0,0,0-6.37H22.32a3.19,3.19,0,0,0-3,2.12h-3.1a60.6,60.6,0,0,1-1.27-10.31l1.43-1.91a7.46,7.46,0,0,1,5.53-3,19.25,19.25,0,0,0,10.47,5.08l1.57.22c-.11,2.22-.32,4.45-.63,6.49h0c-.09.66-.17,1.08-.37,2.26a9,9,0,0,1-6.41,7.26,8.41,8.41,0,0,1-4.17,0,8.61,8.61,0,0,1-5.21-4Zm2-1.06A1.06,1.06,0,0,1,22.32,28h2.13a1.07,1.07,0,0,1,0,2.13H22.32A1.06,1.06,0,0,1,21.26,29ZM10.81,40.67l4.47-1.49a42.82,42.82,0,0,0,3,6.56h0a42.89,42.89,0,0,0,2.91,4.44l1.31,2.1H2.17C2.59,47,6.09,42.24,10.81,40.67Z"/></g></g></svg>