<svg xmlns="http://www.w3.org/2000/svg" viewBox="0 0 287.84 102.02"><defs><style>.cls-1{fill:#231f20;}</style></defs><g id="Layer_2" data-name="Layer 2"><g id="Layer_1-2" data-name="Layer 1"><path class="cls-1" d="M72.15,39.66q0,7.44-6.33,12.77a23.27,23.27,0,0,1-15.29,5.29H3V0H50.53A23,23,0,0,1,65.82,5.33Q72.15,10.61,72.15,18ZM54.88,38.23V19.45a4.49,4.49,0,0,0-1.77-3.55,6.71,6.71,0,0,0-4.31-1.48H20.3V43.3H48.8a6.71,6.71,0,0,0,4.31-1.48A4.45,4.45,0,0,0,54.88,38.23Z"/><path class="cls-1" d="M136.64,57.72H77.86V0h58.78V14.42H95.16v8.67h41.48V34.63H95.16V43.3h41.48Z"/><path class="cls-1" d="M213.43,57.72H190.08L161.59,36.79V57.72H144.28V0h17.31V20.93L190.08,0h23.35L174.55,28.84Z"/><path class="cls-1" d="M286.14,39.66q0,7.44-6.34,12.77a23.23,23.23,0,0,1-15.28,5.29H238.6a23.23,23.23,0,0,1-15.28-5.29Q217,47.11,217,39.66V18q0-7.4,6.34-12.68A23,23,0,0,1,238.6,0h25.92A23,23,0,0,1,279.8,5.33q6.34,5.28,6.34,12.68Zm-17.27-1.43V19.45a4.49,4.49,0,0,0-1.77-3.55,6.71,6.71,0,0,0-4.31-1.48H240.33A6.71,6.71,0,0,0,236,15.9a4.54,4.54,0,0,0-1.73,3.55V38.23A4.57,4.57,0,0,0,236,41.82a6.71,6.71,0,0,0,4.31,1.48h22.46a6.71,6.71,0,0,0,4.31-1.48A4.45,4.45,0,0,0,268.87,38.23Z"/><path class="cls-1" d="M.83,94.36C.17,94.36,0,94.19,0,94a.87.87,0,0,1,.25-.46,3,3,0,0,1,2-.79h.29a1.91,1.91,0,0,0,.58.08h.12c8.19-1,12.51-4.66,12.51-4.66,2.62-1.79,2.95-3.16,2.95-3.75,0-2.49-4.9-3.7-4.9-5.53,0-.92,1.83-1.67,2.28-1.92,2.75-1.37,7.9-4.57,7.9-6,0-1.58-4.53-1.58-4.53-1.58-8.44,0-13.21,2.79-13.21,2.79a.72.72,0,0,1-.38.16c-.21,0-.21-.29-.21-.29A3.41,3.41,0,0,1,7.27,70a31.79,31.79,0,0,1,11-1.71c3.61,0,8.43.55,8.43,2.29,0,.54-.21,1.59-2.24,3a52.94,52.94,0,0,1-6.15,3.62c-.58.33-2,1.17-2,1.79,0,.25.09.5.5.83,0,0,1,.88,2.7,2,0,0,1.92,1.12,1.92,2.62,0,.29-.34,2.92-5.61,5.79A33.58,33.58,0,0,1,1,94.36Zm4.32-6.7c1.25-3,5.07-10,5.07-10a30.54,30.54,0,0,0,2.41-4.25c.25-.54,1-1.12,2.62-1.2.25,0,.79,0,.79.25s0,.41-.58.83c0,0-.12,0-.46.42,0,0-2.16,2.33-7.56,12.61a30.28,30.28,0,0,0-1.71,4.24c0,.29-.16.34-.29.34-.62,0-.87-.88-.87-1.34A4.55,4.55,0,0,1,5.15,87.66Z"/><path class="cls-1" d="M26.72,90.66c-1.83,0-2.37-2-2.37-2.92,0-2.62,3.16-6.45,3.2-6.37,2.29-2.45,3.66-2.62,4-2.62a2.26,2.26,0,0,1,1.67,2.17c0,1.87-2.54,4.2-6.78,5.41a.44.44,0,0,0-.37.25,5.32,5.32,0,0,0-.54,1.87c0,.67.21,1,1.16,1,2.79,0,8.19-3,12.59-5.37a.31.31,0,0,1,.17-.09s.12,0,.12.25A1.68,1.68,0,0,1,39,85.45C39,85.66,30.17,90.66,26.72,90.66ZM31.88,80.5a.22.22,0,0,0-.25-.25c-1.54,0-4.12,3.58-4.49,4.33a.72.72,0,0,0-.13.25c0,.08.09.08.13.08C28.09,84.91,31.88,82.33,31.88,80.5Z"/><path class="cls-1" d="M57.44,84.37s-8,4.33-10.39,4.33c-1.33,0-1.46-1.62-1.46-2.46,0-.12,0-.16-.08-.16a.28.28,0,0,0-.17.08c-1.74,1.42-4.24,3-4.24,3a3.35,3.35,0,0,1-1.7.71,1.63,1.63,0,0,1-1.46-1.33c0-.34.17-1,1.25-2.54,0,0,4.7-5.66,7.77-6.12a2.36,2.36,0,0,1,2,1.79c0,.12,0,.25-.17.25a.3.3,0,0,1-.16,0,3.34,3.34,0,0,0-1.5-.42S45.8,81.58,43,84a17,17,0,0,0-3.11,3.37,1.43,1.43,0,0,0-.21.5c0,.12.08.21.29.21a3.19,3.19,0,0,0,1.25-.42,33.14,33.14,0,0,0,5.15-3.58c.46-.41.58-1,1.46-1,.16,0,1,.13,1,.5,0,.13,0,.25-.25.46,0,0-1.78,2.08-1.78,3,0,.25,0,.33.33.37,1.95-.17,8.52-3.37,11.51-5,0,0,.13,0,.13.25C58.81,83.75,57.44,84.37,57.44,84.37Z"/><path class="cls-1" d="M64.63,88.66c-.3,0-.38-.54-.38-.79a6.09,6.09,0,0,1,.38-1.71l0-.08a.1.1,0,0,0-.09-.09.27.27,0,0,0-.16.09c-4.78,3.83-5.57,4-6.15,4-1.13,0-1.29-1.62-1.29-2.29,0-3.45,4.49-8.4,4.65-8.57a.7.7,0,0,1,.34-.08,1.21,1.21,0,0,1,1.08,1.2,14,14,0,0,1-1.17,1.21c-1.12,1.25-3.36,4.37-3.66,6.37,0,.12,0,.33.34.33.91,0,4.94-1.95,7.56-5.28a1.91,1.91,0,0,1,1.58-.59c.58,0,.79.09.79.29s-.75,1.13-1.16,1.67a36.64,36.64,0,0,0-2.46,4C64.79,88.66,64.63,88.66,64.63,88.66Z"/><path class="cls-1" d="M80.25,89c-2.62,1.75-6.19,4.12-8,4.12-1.25,0-1.29-1.37-1.29-3,0-4.66,5.49-11.11,7.19-14.52a.17.17,0,0,0,0-.13c0-.08-.12-.08-.16-.08a20.08,20.08,0,0,1-3.41.33c-2.74,0-4-1.54-4-2.58a.22.22,0,0,1,.25-.25,6,6,0,0,1,1.87.92,4,4,0,0,0,2.41.58H76a18.71,18.71,0,0,0,2.74-.25.57.57,0,0,0,.34-.12,43.63,43.63,0,0,0,2.78-4.75,1.8,1.8,0,0,1,1.42-.54c.33,0,.7.08.7.46a1.08,1.08,0,0,1-.21.62s-1,1.54-2.41,3.75c0,.16,0,.21.13.21a54,54,0,0,1,6.23-.84c.21,0,.75,0,.75.34,0,.16-.21,1.37-1,1.37a12.35,12.35,0,0,0-1.62-.17A23.45,23.45,0,0,0,81,75c-.41.09-.41.05-.66.3,0,0-7.44,10.44-8.19,14.65a1.69,1.69,0,0,0,0,.37c0,.38.08.88.66.92,2.7,0,9.44-5.62,13.59-7.12a.47.47,0,0,1,.13.33.8.8,0,0,1-.34.59Z"/><path class="cls-1" d="M88.19,87c0,.71.37.84,1,.84a5.55,5.55,0,0,0,1.33-.21,50,50,0,0,0,9.39-4.58,1.68,1.68,0,0,1,.66-.33c.13,0,.13.08.13.21-.33,1.37-2.16,2.24-2.16,2.24-7,3.92-8.56,4-8.56,4a2.15,2.15,0,0,1-.5,0,2.82,2.82,0,0,1-2.12-1.12,2,2,0,0,1-.42-1.38c0-2.41,3.45-6.86,3.49-6.66a3.83,3.83,0,0,1,2.16-.5s.38,0,.38.21a.58.58,0,0,1-.29.46C91.64,81,88.19,85.12,88.19,87ZM94.34,76a2.55,2.55,0,0,0-.67.13.27.27,0,0,1-.29.16s-.54,0-.54-.41c0-.88,1-1.5,1-1.5a3.62,3.62,0,0,1,1.17-.46c.41,0,.66.34.66.88C95.71,75.67,94.34,76,94.34,76Z"/><path class="cls-1" d="M100.24,92.74a11.79,11.79,0,0,1-.33,1.62c-.13.33-.29.42-.42.42-.75,0-1-1.79-1-2.46.29-1.87,7.11-13.32,7.11-13.32a.3.3,0,0,0,0-.16c0-.09,0-.09-.08-.09a.5.5,0,0,0-.13,0,20.07,20.07,0,0,1-3,.25c-1.5,0-1.5-.29-1.5-.54,0-.66,1-1.2,1.09-1.2a.52.52,0,0,1,.33.16s.08.17,1.41.17c.58,0,1.46,0,2.74-.13a.44.44,0,0,0,.34-.2s4.11-6.83,6.27-8.7a5.62,5.62,0,0,1,3.62-1c.5,0,1.2.08,1.2.66a4.68,4.68,0,0,1-2,3.25.87.87,0,0,1-.29.08c-.09,0-.13,0-.13-.17a.78.78,0,0,1,0-.25,5.22,5.22,0,0,0,.38-1.66,1.27,1.27,0,0,0-.13-.62.3.3,0,0,0-.21-.09A.84.84,0,0,0,115,69s-2.86,1.79-6.35,7.83c0,.16,0,.25.12.25s4.61-.79,6.15-.79a.39.39,0,0,1,.33.41,2.16,2.16,0,0,1-.49,1.13c-.09.08-.13.16-.17.16a6.1,6.1,0,0,0-1.66-.21,24.6,24.6,0,0,0-5.12.75.68.68,0,0,0-.29.25C106.77,79.38,100.24,91.07,100.24,92.74Z"/><path class="cls-1" d="M119.82,86.16a.39.39,0,0,0-.13,0c-4.16,3.42-5.86,3.37-5.86,3.37-1.08,0-1.33-1.66-1.33-1.74,0-4.12,4.9-9.49,4.9-9.49.54-.46.5-.55,1.29-.55.17,0,1.25.09,1.25.5,0,.09-.08.21-.37.42-2,1.42-5.91,7-5.91,8.82,0,.25,0,.5.5.5,1.54,0,5.28-2.62,6.86-4.12a11.8,11.8,0,0,0,1.21-1.62,1.55,1.55,0,0,1,1.33-.5c.45,0,1.16.13,1.16.54-2.83,3.62-3.91,5.66-8.77,14-.21.45-2.53,4.58-3,5.37-.17.25-.29.33-.42.33-.33,0-.33-.67-.33-.87a5.89,5.89,0,0,1,.29-1.59c.34-1,1.17-1.7,1.37-2.2,1.38-2.62,5.49-10.08,6-11C119.9,86.2,119.86,86.16,119.82,86.16Z"/><path class="cls-1" d="M150.07,86.16a.4.4,0,0,0-.12,0c-4.16,3.42-5.86,3.37-5.86,3.37-1.08,0-1.33-1.66-1.33-1.74,0-4.12,4.9-9.49,4.9-9.49.54-.46.5-.55,1.29-.55.16,0,1.25.09,1.25.5,0,.09-.09.21-.38.42-2,1.42-5.9,7-5.9,8.82,0,.25,0,.5.5.5,1.54,0,5.28-2.62,6.86-4.12a11.33,11.33,0,0,0,1.2-1.62,1.55,1.55,0,0,1,1.33-.5c.46,0,1.16.13,1.16.54-2.82,3.62-3.9,5.66-8.76,14-.21.45-2.54,4.58-3,5.37-.16.25-.29.33-.41.33-.33,0-.33-.67-.33-.87a5.52,5.52,0,0,1,.29-1.59,12,12,0,0,1,1.37-2.2c1.37-2.62,5.48-10.08,6-11C150.15,86.2,150.11,86.16,150.07,86.16Z"/><path class="cls-1" d="M172.72,82.66A1.91,1.91,0,0,1,171.56,84a22.19,22.19,0,0,1-8.32,2.12.3.3,0,0,0-.24.13c-1.63,2-3.08,3.33-4.49,3.33-1,0-1.25-1-1.25-1.71,0-3.54,4.07-7.41,4.32-7.45a1.25,1.25,0,0,1,.63-.17c.33,0,1.87.38,1.87.92,0,.08-.05.16-.25.16a2.59,2.59,0,0,0-1.83.75s-3.33,3.17-3.33,5.37c0,.21,0,.5.34.5a4.61,4.61,0,0,0,3-2s0-.12,0-.12-.42-.21-.42-.58a3.54,3.54,0,0,1,2.66-2.46c.21,0,.58,0,.58.33,0,.75-.58,1.33-.58,1.54s0,.17.25.17c0,0,3.2,0,8.14-2.29a.19.19,0,0,1,.09,0S172.72,82.54,172.72,82.66Z"/><path class="cls-1" d="M178.41,88.66c-.29,0-.37-.54-.37-.79a6.23,6.23,0,0,1,.37-1.71l0-.08a.1.1,0,0,0-.08-.09.27.27,0,0,0-.16.09c-4.78,3.83-5.57,4-6.16,4-1.12,0-1.28-1.62-1.28-2.29,0-3.45,4.48-8.4,4.65-8.57a.68.68,0,0,1,.33-.08,1.2,1.2,0,0,1,1.08,1.2,12.17,12.17,0,0,1-1.16,1.21c-1.12,1.25-3.37,4.37-3.66,6.37,0,.12,0,.33.34.33.91,0,4.94-1.95,7.56-5.28a1.89,1.89,0,0,1,1.58-.59c.58,0,.79.09.79.29s-.75,1.13-1.17,1.67a35.48,35.48,0,0,0-2.45,4C178.58,88.66,178.41,88.66,178.41,88.66Z"/><path class="cls-1" d="M184.27,89.74a.62.62,0,0,1-.2.29c-.5,0-.59-.91-.59-1a6.81,6.81,0,0,1,1.29-2.7c.75-1.13,1.41-2.21,1.41-2.21,1.92-3.12,2.08-4.83,2.08-5.33v-.16a.21.21,0,0,1,.21-.21.87.87,0,0,1,.25.08,1.35,1.35,0,0,1,1.08,1.21,5.06,5.06,0,0,1-.66,1.91c0,.09,0,.17.08.17s.08,0,.12-.08a25.41,25.41,0,0,1,4.57-2.88,12.6,12.6,0,0,1,4.58-1.16s.12,0,.12,0-.08.17-.41.37c-1.87.59-6.36,3.21-10.68,7.29A51.29,51.29,0,0,0,184.27,89.74Z"/><path class="cls-1" d="M228.91,82.46c0,2.41-4.82,6.78-7.32,6.78a2.1,2.1,0,0,1-2-2.25,4.16,4.16,0,0,1,.12-.95c0-.13,0-.13-.08-.13a.5.5,0,0,0-.13,0c-1.53,1.21-4.78,5.29-6.52,5.29-.87,0-1.33-1.37-1.33-1.87a4.12,4.12,0,0,1,.21-1.25,29.61,29.61,0,0,1,5.94-9.78.82.82,0,0,1,.66-.3c.3,0,1.38.21,1.38.92,0,.33-.21.17-.75.71a28,28,0,0,0-5.57,7.74,6.59,6.59,0,0,0-.62,2c0,.21,0,.41.29.41s1.41-.66,4.15-3.24c0,0,2.75-2.67,2.91-2.75,0,0,.58-1,1-1.12a2.47,2.47,0,0,1,.66-.09c.38,0,1.17.13,1.17.54a.55.55,0,0,1-.21.38s-2.08,2.58-2.08,3.95c0,.46.09.75.83.75,1.38,0,5.24-3.33,5.24-5.62a2.14,2.14,0,0,0-.12-.62c0-.13,0-.29.33-.29C227,81.71,228.91,81.75,228.91,82.46Z"/><path class="cls-1" d="M246.24,82.66A1.94,1.94,0,0,1,245.07,84a22.13,22.13,0,0,1-8.31,2.12.33.33,0,0,0-.25.13c-1.62,2-3.07,3.33-4.49,3.33-1,0-1.24-1-1.24-1.71,0-3.54,4.07-7.41,4.32-7.45a1.24,1.24,0,0,1,.62-.17c.34,0,1.87.38,1.87.92,0,.08,0,.16-.25.16a2.57,2.57,0,0,0-1.82.75s-3.33,3.17-3.33,5.37c0,.21,0,.5.33.5a4.59,4.59,0,0,0,2.95-2s0-.12,0-.12a.76.76,0,0,1-.41-.58,3.54,3.54,0,0,1,2.66-2.46c.2,0,.58,0,.58.33,0,.75-.58,1.33-.58,1.54s0,.17.25.17c0,0,3.2,0,8.14-2.29a.14.14,0,0,1,.08,0S246.24,82.54,246.24,82.66Z"/><path class="cls-1" d="M244.12,89.74a.6.6,0,0,1-.21.29c-.5,0-.58-.91-.58-1a6.81,6.81,0,0,1,1.29-2.7c.74-1.13,1.41-2.21,1.41-2.21,1.91-3.12,2.08-4.83,2.08-5.33v-.16a.21.21,0,0,1,.21-.21,1,1,0,0,1,.25.08,1.36,1.36,0,0,1,1.08,1.21,5.19,5.19,0,0,1-.67,1.91c0,.09,0,.17.08.17a.2.2,0,0,0,.13-.08,25.41,25.41,0,0,1,4.57-2.88,12.52,12.52,0,0,1,4.57-1.16s.13,0,.13,0-.09.17-.42.37c-1.87.59-6.36,3.21-10.68,7.29A51.61,51.61,0,0,0,244.12,89.74Z"/><path class="cls-1" d="M269.43,85.25a40,40,0,0,1-9.73,5.24,4,4,0,0,1-1.53.29c-1.46,0-1.63-1.16-1.63-2.54,0-3.7,5.24-11.24,5.24-11.24,2.41-3.58,5.94-9.24,5.94-9.24s.29-.5,1.46-.5c.5,0,1,.09,1,.38a.64.64,0,0,1-.09.21s-.95,1.54-7.06,10.07c0,0-5.36,7.49-5.36,10.32,0,.29,0,.88.91.88s3.45-.5,11.27-5.46a.62.62,0,0,1,.29-.12c.08,0,.12,0,.12.17A2.74,2.74,0,0,1,269.43,85.25Z"/><path class="cls-1" d="M276.24,85.16a0,0,0,0,0,0,0s-.08,0-.21.13c-3.65,3.12-5.52,3.82-6.19,3.82s-.95-.83-.95-1.41c0-2.87,5.36-7.53,6.81-7.53.67,0,1.21,1,1.21,1.37a.23.23,0,0,1-.21.17c-.08,0-.17,0-.54-.13-1,.21-3.74,1.83-6.07,5.58a1.05,1.05,0,0,0-.16.41c0,.09,0,.13.16.13.79,0,4.07-1.54,7.48-5.25,1.21-1.33,5.61-8.57,8.15-11.82a.43.43,0,0,1,.33-.2.37.37,0,0,1,.25.12,2.06,2.06,0,0,1,.54,1.12,1.05,1.05,0,0,1-.08.34l-6,8.32s-4,5.7-4,7.58c0,.16,0,.75,1,.75a4.85,4.85,0,0,0,1.29-.25,48.05,48.05,0,0,0,8.56-4,.43.43,0,0,1,.17,0s.08,0,.08.16a1.5,1.5,0,0,1-.5,1.13c-2.74,2.25-9.1,4.87-10.68,4.87-.91,0-1.21-.79-1.21-1.75a11.55,11.55,0,0,1,.71-3.37A.68.68,0,0,0,276.24,85.16Z"/><path class="cls-1" d="M44.34,32.51V25.19a1.75,1.75,0,0,0-.7-1.39A2.62,2.62,0,0,0,42,23.23H30.85V34.49H42a2.57,2.57,0,0,0,1.67-.58A1.71,1.71,0,0,0,44.34,32.51Z"/><path class="cls-1" d="M257.19,31.9V25.81a1.47,1.47,0,0,0-.57-1.16,2.18,2.18,0,0,0-1.4-.48h-7.29a2.18,2.18,0,0,0-1.4.48,1.49,1.49,0,0,0-.56,1.16V31.9a1.5,1.5,0,0,0,.56,1.17,2.18,2.18,0,0,0,1.4.48h7.29a2.18,2.18,0,0,0,1.4-.48A1.45,1.45,0,0,0,257.19,31.9Z"/><polygon class="cls-1" points="209.13 11.78 209.13 44.57 185.94 28.86 209.13 11.78"/></g></g></svg>