<svg xmlns="http://www.w3.org/2000/svg" viewBox="0 0 250.26 123.77"><defs><style>.cls-1{fill:#2c2b2a;}.cls-2{fill:#231f20;}</style></defs><g id="Layer_2" data-name="Layer 2"><g id="Layer_1-2" data-name="Layer 1"><g id="INOX_WITH_TAGLINE" data-name="INOX WITH TAGLINE"><path class="cls-1" d="M51.32,115.3a4.8,4.8,0,0,1-.54,2.23,9,9,0,0,1-4.45,3.94,15.58,15.58,0,0,1-6.85,1.58q-5.41,0-7.36-3.55-3.52,2.84-5,2.83a1.06,1.06,0,0,1-.48-.1,2.31,2.31,0,0,1-1-2.27,8.87,8.87,0,0,1,1.5-4.27c1-1.68,1.89-2.68,2.64-3a2.72,2.72,0,0,1,.79-.16c.66,0,1.16.52,1.5,1.57l1,3.16A40.79,40.79,0,0,0,35.75,114l3-4q5.63-7,7.36-7.65a3.52,3.52,0,0,1,1.27-.23,2,2,0,0,1,1.08.26.75.75,0,0,1,.43.66q0,.58-1,.69A25.73,25.73,0,0,0,44,107.07a44.46,44.46,0,0,0-3.44,3.43,48.61,48.61,0,0,1-7.08,7.89,6.7,6.7,0,0,0,6.26,4,9.66,9.66,0,0,0,5-1.52,10.27,10.27,0,0,0,3.73-3.77,4.22,4.22,0,0,0,.55-2.13,3.31,3.31,0,0,0-1-2.25,5.67,5.67,0,0,0-2.45-1.57c-.46-.06-1.19-.16-2.19-.27s-1.51-.33-1.51-.61a.42.42,0,0,1,.14-.3,1.38,1.38,0,0,1,1.06-.46,2.35,2.35,0,0,1,.74.13l.56.2.48.16c.5,0,.94.07,1.3.07a11.66,11.66,0,0,0,4.11-.69,4.71,4.71,0,0,0,3-2.66,6.36,6.36,0,0,0,.41-2.07,3.62,3.62,0,0,0-2.3-3.39,12.51,12.51,0,0,0-5.44-1,23.31,23.31,0,0,0-9.76,2,14.4,14.4,0,0,0-4.16,2.92c-1.31,1.3-2,2.4-2,3.32a2.42,2.42,0,0,0,.51,1.58,4.52,4.52,0,0,0,.72.66c.12.06.05.1-.2.1A2.5,2.5,0,0,1,29,108.07a5.63,5.63,0,0,1,2.4-4.27,15.25,15.25,0,0,1,4-2.4A27.35,27.35,0,0,1,46,99.49a15.85,15.85,0,0,1,6.71,1.19c1.94.87,2.91,2.2,2.91,4a5.77,5.77,0,0,1-.44,2.14q-.72,2-3.74,3a15.86,15.86,0,0,1-4.86.78A5.18,5.18,0,0,1,49.94,112a4.41,4.41,0,0,1,1.38,3.31m-21.87-1.22a.53.53,0,0,0-.18.07c-1.68,2.34-2.53,4.23-2.53,5.65a3,3,0,0,0,.45,1.61.36.36,0,0,0,.34.16c.73,0,2.13-1,4.21-3l-.1-.13q-1.38-4.36-2.19-4.37"/><path class="cls-1" d="M54.75,121.94a2.5,2.5,0,0,1-.69-.1q-2.19-.6-2.19-2.37c0-1.53,1-3.31,3-5.32s3.81-3,5.41-3a2,2,0,0,1,1.28.4,1.28,1.28,0,0,1,.5,1c0,1.22-1,2.4-2.9,3.51a10.16,10.16,0,0,1-4.7,1.68,1.35,1.35,0,0,1-.48-.07,3.66,3.66,0,0,0-.52,1.88,1.51,1.51,0,0,0,1.7,1.71c1.13,0,2.59-.74,4.4-2.21a21.51,21.51,0,0,0,3.56-3.41c.2-.27.38-.4.53-.4s.22.07.22.2a1.1,1.1,0,0,1-.27.56,21.24,21.24,0,0,1-4.45,4.14,8.35,8.35,0,0,1-4.42,1.81m6.47-9.47q0-.39-.87-.39a4.7,4.7,0,0,0-2.49,1.28,15,15,0,0,0-3.35,3.58A1.56,1.56,0,0,0,55,117a7.42,7.42,0,0,0,3.48-1.33,5.93,5.93,0,0,0,2.72-2.91.72.72,0,0,0,.07-.3"/><path class="cls-1" d="M93,108.5l-.24-.89c0-.18.09-.26.27-.26a.68.68,0,0,1,.28.09,1.75,1.75,0,0,1,.78,1.48,2.34,2.34,0,0,1-1.23,1.79,5.26,5.26,0,0,1-3.11.87,7.68,7.68,0,0,1-1.17-.09,37.75,37.75,0,0,1-5.75,7.68q-4.52,4.6-8.22,4.6-5.34,0-5.34-6a11.51,11.51,0,0,1,2.77-8,7,7,0,0,1,5.35-2.63,5.35,5.35,0,0,1,1.6.26,3.08,3.08,0,0,1,2,3.21A8.43,8.43,0,0,1,79,115.63c-1.4,1.77-2.82,2.66-4.28,2.66-1.65,0-2.47-.86-2.47-2.57a3.93,3.93,0,0,1,.33-1.51c.21-.52.46-.78.73-.78s.31.09.31.29a2.89,2.89,0,0,1-.31.82,2.92,2.92,0,0,0-.31,1.17,1.22,1.22,0,0,0,.57,1,1.86,1.86,0,0,0,1.18.44q2,0,3.75-2.38a8,8,0,0,0,1.73-4.65,2.24,2.24,0,0,0-1.3-2.3,2.68,2.68,0,0,0-.93-.16q-2.43,0-4.86,3.22A11.89,11.89,0,0,0,70.74,118a5.87,5.87,0,0,0,1,3.48,3.18,3.18,0,0,0,2.74,1.38q4.52,0,11.78-11.79c-2.52-.73-3.77-2.15-3.77-4.28q0-4.23,4.48-6.77a11.39,11.39,0,0,1,5.52-1.57,10.37,10.37,0,0,1,3.76.65q2.37.9,2.37,2.7a1.74,1.74,0,0,1-.19.76c-.13.24-.26.36-.4.36a1.45,1.45,0,0,0-1.06-.43q-2.91,0-8,8.31a3.73,3.73,0,0,0,.59,0,4.72,4.72,0,0,0,2.33-.66A1.92,1.92,0,0,0,93,108.5m.24-9.17a10.39,10.39,0,0,0-4,1,8.37,8.37,0,0,0-3.63,2.84,7,7,0,0,0-1.36,4.24,2.67,2.67,0,0,0,2.54,2.82,33.72,33.72,0,0,1,4.86-5.89c2-2,3.64-3,5-3a1.74,1.74,0,0,1,.9.23c0-.61-.47-1.14-1.34-1.61a6,6,0,0,0-2.91-.65"/><path class="cls-1" d="M93.82,111.12c.61,0,.92.23.92.69a.82.82,0,0,1-.1.4,22.94,22.94,0,0,0-3.7,6.21q8-7.65,9.69-7.66l.31,0c.64,0,1,.27,1,.82a1,1,0,0,1-.07.33c0,.11-.5.7-1.37,1.78a28.25,28.25,0,0,0-2.55,3.28,5.12,5.12,0,0,0-1,2.63q0,1.05.48,1.05c1,0,2.75-1.32,5.24-4a3,3,0,0,0,.24-.3c.34-.39.55-.59.62-.59s.1.11.1.33a1.46,1.46,0,0,1-.48.85q-4.25,4.64-6,4.63c-1.11,0-1.67-.59-1.67-1.77a8.2,8.2,0,0,1,1.37-4.08l2.19-3.41a25.5,25.5,0,0,0-4.15,3.6q-1.81,1.95-3.3,3.79c-1,1.23-1.57,1.84-1.73,1.84a.93.93,0,0,1-.8-.41,1.66,1.66,0,0,1-.29-1,4.24,4.24,0,0,1,.44-1.62c.3-.68.67-1.51,1.13-2.47l-2,2.07c-.51.48-.82.72-1,.72s-.18-.07-.18-.21a.74.74,0,0,1,.27-.48,26.91,26.91,0,0,0,2.19-2.33c.6-.74,1.82-2.17,3.67-4.27a.85.85,0,0,1,.65-.4"/><path class="cls-1" d="M107.62,111.12c.61,0,.92.23.92.69a.82.82,0,0,1-.1.4,22.94,22.94,0,0,0-3.7,6.21q8-7.65,9.69-7.66l.31,0c.64,0,1,.27,1,.82a1,1,0,0,1-.07.33c0,.11-.5.7-1.37,1.78a28.25,28.25,0,0,0-2.55,3.28,5.12,5.12,0,0,0-1,2.63q0,1.05.48,1.05c1,0,2.75-1.32,5.24-4a3,3,0,0,0,.24-.3c.34-.39.55-.59.62-.59s.1.11.1.33a1.46,1.46,0,0,1-.48.85q-4.24,4.64-6,4.63c-1.11,0-1.67-.59-1.67-1.77a8.2,8.2,0,0,1,1.37-4.08l2.19-3.41a25.5,25.5,0,0,0-4.15,3.6q-1.81,1.95-3.3,3.79c-1,1.23-1.57,1.84-1.73,1.84a.93.93,0,0,1-.8-.41,1.66,1.66,0,0,1-.29-1,4.24,4.24,0,0,1,.44-1.62c.3-.68.67-1.51,1.13-2.47l-2,2.07c-.51.48-.82.72-1,.72s-.18-.07-.18-.21a.74.74,0,0,1,.27-.48,28.55,28.55,0,0,0,2.19-2.33c.59-.74,1.82-2.17,3.66-4.27a.89.89,0,0,1,.66-.4"/><path class="cls-1" d="M124.84,114.54q0,1.15-2.3,3.85-2.7,3.18-4.62,3.18h-.55a1.56,1.56,0,0,1-1.4-.88,2.51,2.51,0,0,1-.41-1.38c0-1.32,1-3.16,3-5.54s3.62-3.57,4.85-3.57a1.57,1.57,0,0,1,1.75,1.78,5.06,5.06,0,0,1-.18,1.18c0,.07.24.1.66.1a5,5,0,0,0,1.88-.62c0,.37-.93.9-2.71,1.61a.85.85,0,0,1,0,.29m-2.23-1.71c-.77,0-1.88.88-3.3,2.63s-2.14,3.05-2.14,3.88.27,1.25.82,1.25c1,0,2.23-.86,3.73-2.56s2.26-2.94,2.26-3.69a4.85,4.85,0,0,1-1.37-1.51"/><path class="cls-1" d="M134.84,108.59a2.48,2.48,0,0,1,1.74.66,2.37,2.37,0,0,1,.72,1.84q0,2.59-4.48,6.51a19.83,19.83,0,0,1-6.13,4,2.1,2.1,0,0,1-1-.4c-.41-.26-.61-.5-.61-.72a25.68,25.68,0,0,1,1.64-4.9q1.65-4.17,2.26-4.66a.62.62,0,0,1,.45-.13,1,1,0,0,1,.65.31,1.1,1.1,0,0,1,.37.74s-.56,1.29-1.69,3.81-1.66,4-1.59,4.5q1.47-.42,5.25-3.45t3.78-5.42a2.19,2.19,0,0,0-1.5-2.1.33.33,0,0,1-.24-.3c0-.2.12-.3.38-.3"/><path class="cls-1" d="M147.23,111.68l.48-.1a1.09,1.09,0,0,1,.72.3c.23.2.34.35.34.46a31.41,31.41,0,0,1-2.12,3.17c-1.42,2-2.12,3.4-2.12,4.19a.69.69,0,0,0,0,.2q.16.75.75.75,1.78,0,6.51-5.65a.33.33,0,0,1,.24-.13c.09,0,.14.08.14.25a1.25,1.25,0,0,1-.31.64q-4.38,5.61-6.68,5.62a1.86,1.86,0,0,1-.58-.1,2.13,2.13,0,0,1-1.51-2.17,4.84,4.84,0,0,1,.14-1.12l-2.13,2c-1.34,1.14-2.32,1.71-2.92,1.71a3,3,0,0,1-1.73-.56,2,2,0,0,1-.93-1.74q0-2.4,3.5-5.73c2.32-2.22,4.46-3.34,6.4-3.34a1.53,1.53,0,0,1,1.51.76c.07.17.12.32.17.44s.08.18.1.18M137,119.77c0,.79.29,1.18.86,1.18,1.32,0,3.13-1.39,5.41-4.17l3.63-4.8a1,1,0,0,0-.89-.46q-2.08,0-5.55,3.1T137,119.77"/><path class="cls-1" d="M158.87,110.93l4.93-.07c.07,0,.11.08.11.1,0,.2-1.42.47-4.27.82s-4.38.56-4.6.63a18.28,18.28,0,0,0-2.4,3.33c-1.16,1.85-1.75,3.21-1.75,4.06s.59,1.22,1.75,1.22a6.61,6.61,0,0,0,2.16-.5,12.62,12.62,0,0,0,2-.92,20.93,20.93,0,0,0,4.11-3.38c.32-.31.54-.46.65-.46s.1.06.1.2-.17.39-.51.78a15.09,15.09,0,0,1-4,3.39,10.06,10.06,0,0,1-5.1,1.57,3.07,3.07,0,0,1-1.73-.44,2,2,0,0,1-.66-1.79,8.79,8.79,0,0,1,1.23-3.7c.82-1.56,1.45-2.73,1.88-3.5a3.86,3.86,0,0,1-.82.1q-1,0-1-.75c0-.38.27-.64.82-.79l.31,0h2l1.41-1.75c.64-.78,1.07-1.18,1.3-1.18a2,2,0,0,1,.85.26c.35.18.52.39.52.63s-.55.95-1.65,2.13c.6,0,1.37,0,2.33,0"/><path class="cls-1" d="M161.34,121.87c-1.17,0-1.75-.72-1.75-2.17q0-1.77,2-4.91t3.25-3.17a1.59,1.59,0,0,1,.78.26c.28.18.42.35.42.53s-.25.32-.41.51l-.51.6c-.18.22-.44.53-.76.94s-.62.79-.92,1.17q-2.57,3.18-2.57,4.38c0,.8.29,1.2.86,1.2a4.16,4.16,0,0,0,1.95-.75,17,17,0,0,0,4.55-3.75c.42-.5.69-.75.84-.75s.23.08.23.26-.27.52-.79,1l-1.25,1.25c-.31.3-.52.51-.64.61l-.63.55a7.57,7.57,0,0,1-.7.58c-.16.11-.39.27-.68.49a4.27,4.27,0,0,1-.79.48l-.79.34a4.43,4.43,0,0,1-1.71.3m7.17-13.46a.89.89,0,0,1,.46.74.9.9,0,0,1-.42.74,1.57,1.57,0,0,1-1,.31,1.44,1.44,0,0,1-.94-.36,1.07,1.07,0,0,1-.43-.82c0-.61.44-.92,1.3-.92a1.77,1.77,0,0,1,1,.31"/><path class="cls-1" d="M177.16,108.59a2.48,2.48,0,0,1,1.74.66,2.37,2.37,0,0,1,.72,1.84q0,2.59-4.48,6.51a19.83,19.83,0,0,1-6.13,4,2.1,2.1,0,0,1-1-.4c-.41-.26-.61-.5-.61-.72a25.68,25.68,0,0,1,1.64-4.9q1.65-4.17,2.26-4.66a.62.62,0,0,1,.45-.13,1,1,0,0,1,.65.31,1.1,1.1,0,0,1,.37.74s-.56,1.29-1.69,3.81-1.66,4-1.59,4.5q1.47-.42,5.25-3.45c2.52-2,3.79-3.82,3.79-5.42a2.2,2.2,0,0,0-1.51-2.1.33.33,0,0,1-.24-.3c0-.2.12-.3.38-.3"/><path class="cls-1" d="M179.9,121.94a2.44,2.44,0,0,1-.69-.1q-2.19-.6-2.19-2.37c0-1.53,1-3.31,3-5.32s3.81-3,5.41-3a2,2,0,0,1,1.29.4,1.27,1.27,0,0,1,.49,1c0,1.22-1,2.4-2.89,3.51a10.16,10.16,0,0,1-4.71,1.68,1.43,1.43,0,0,1-.48-.07,3.74,3.74,0,0,0-.51,1.88,1.5,1.5,0,0,0,1.69,1.71q1.69,0,4.4-2.21a21.12,21.12,0,0,0,3.56-3.41c.21-.27.39-.4.54-.4s.22.07.22.2a1.05,1.05,0,0,1-.28.56,20.76,20.76,0,0,1-4.45,4.14,8.33,8.33,0,0,1-4.41,1.81m6.47-9.47c0-.26-.29-.39-.88-.39a4.68,4.68,0,0,0-2.48,1.28,14.63,14.63,0,0,0-3.35,3.58,1.5,1.5,0,0,0,.44.07,7.42,7.42,0,0,0,3.48-1.33,6,6,0,0,0,2.72-2.91.92.92,0,0,0,.07-.3"/><path class="cls-1" d="M198.66,119.65a.89.89,0,0,1,.44.74.9.9,0,0,1-.42.74,1.57,1.57,0,0,1-1,.31,1.44,1.44,0,0,1-.94-.36,1.07,1.07,0,0,1-.43-.82c0-.61.45-.92,1.34-.92a1.64,1.64,0,0,1,1,.31m-.17-2c-.16,0-.21-.21-.14-.62q.41-2.27,3.18-6.26t3.77-4a3.19,3.19,0,0,1,.91.15c.33.09.49.23.49.41a.36.36,0,0,1-.13.23,63.57,63.57,0,0,0-4.23,5,37.45,37.45,0,0,0-3.15,4.32c-.24.53-.48.79-.7.79"/><path class="cls-1" d="M207.53,119.65a.92.92,0,0,1,.44.74.89.89,0,0,1-.43.74,1.54,1.54,0,0,1-.94.31,1.44,1.44,0,0,1-.94-.36,1,1,0,0,1-.43-.82c0-.61.45-.92,1.34-.92a1.64,1.64,0,0,1,1,.31m-.17-2c-.17,0-.21-.21-.14-.62q.41-2.27,3.18-6.26t3.77-4a3.25,3.25,0,0,1,.91.15c.33.09.49.23.49.41a.36.36,0,0,1-.13.23,63.57,63.57,0,0,0-4.23,5,37.45,37.45,0,0,0-3.15,4.32c-.24.53-.48.79-.7.79"/><path class="cls-2" d="M104.46,44.54c0,11,0,22,0,33a8.92,8.92,0,0,1-5.83,8.76c-3.93,1.61-8.69,1.37-11.87-2.7-2.53-3.23-5-6.51-7.53-9.75Q70,62,60.66,50.12c-2.72-3.49-5.38-7-8.1-10.52A7.59,7.59,0,0,0,51,38.4a11.27,11.27,0,0,0-.3,1.8q0,18.42,0,36.83a10.79,10.79,0,0,1-3.07,7.49C45,87.59,39.15,87.64,36.5,86.39a9.42,9.42,0,0,1-5.88-9q0-33,0-66.06A9.58,9.58,0,0,1,37,2.09c3.9-1.5,7.53-.94,10.44,2.2,2.19,2.36,4.24,4.86,6.23,7.38,4.55,5.76,9,11.57,13.52,17.36q7.22,9.3,14.41,18.59c.58.75,1.2,1.47,1.83,2.18.15.17.55.38.61.33a1.35,1.35,0,0,0,.43-.73,14,14,0,0,0,.06-1.71c0-11.9.08-23.79,0-35.69a10.26,10.26,0,0,1,4.68-9C92.33.71,95.8.82,99.17,2.58c3.22,1.69,5.26,4.38,5.28,8.17,0,11.26,0,22.52,0,33.79Z"/><path class="cls-2" d="M0,44c0-10.75,0-21.5,0-32.25,0-3,.63-5.58,3-7.64C6.07,1.44,9.56.5,13.35,2.06c4,1.64,6.51,4.66,6.59,9.13.13,6.7.06,13.4.06,20.1,0,15,0,30,0,45a11,11,0,0,1-3.15,8.26A7.83,7.83,0,0,1,10.91,87a15.56,15.56,0,0,1-5-.55A8.62,8.62,0,0,1,0,77.78V44"/><path class="cls-2" d="M220.65,44.26A44.28,44.28,0,0,1,249.54,2.74a1.09,1.09,0,0,0-.17-2.09A44.34,44.34,0,0,0,201,27.09a.38.38,0,0,1-.7,0A44.28,44.28,0,0,0,166,.54a46.15,46.15,0,0,0-6-.46h-.43A44.18,44.18,0,0,0,148.37,87l.39.09a43.49,43.49,0,0,0,10.78,1.34,44.25,44.25,0,0,0,40.72-27,.38.38,0,0,1,.7,0,44.27,44.27,0,0,0,40.82,27.09,45.2,45.2,0,0,0,7.59-.64,1.09,1.09,0,0,0,.17-2.1,44.26,44.26,0,0,1-28.89-41.52m-61.5,37.29c5-5.11,11.29-9.74,15.11-19.68C168,68,160.06,69,151.94,67.35c-6.06-1.19-10.77-5-14.09-9.89a24.16,24.16,0,0,1,5-32.36c7.46-6.14,20.64-7.8,31.66,1-2.15-8.13-12.34-16.47-14.73-18.7a40.72,40.72,0,0,1,13.94,12.42,41.66,41.66,0,0,1,7,17.43C183.86,56,175.6,71.1,159.15,81.55"/></g></g></g></svg>