<?xml version="1.0" encoding="utf-8"?>
<!-- Generator: Adobe Illustrator 24.1.1, SVG Export Plug-In . SVG Version: 6.00 Build 0)  -->
<svg version="1.1" id="Layer_1" xmlns="http://www.w3.org/2000/svg" xmlns:xlink="http://www.w3.org/1999/xlink" x="0px" y="0px"
	 viewBox="0 0 512 248" style="enable-background:new 0 0 512 248;" xml:space="preserve">
<style type="text/css">
	.st0{fill:none;}
	.st1{fill:#BB0303;}
</style>
<g>
	<rect id="canvas_background" x="-1" y="-133" class="st0" width="514" height="514"/>
</g>
<g>
	<g id="svg_1">
		<g id="svg_2">
			<path id="svg_3" class="st1" d="M506.1,109.8C506.1,109.8,506.1,109.8,506.1,109.8L401.6,5.8c-7.8-7.8-20.5-7.8-28.3,0.1
				c-7.8,7.8-7.8,20.5,0.1,28.3l70.2,69.8H20c-11,0-20,9-20,20c0,11,9,20,20,20h423.6l-70.2,69.8c-7.8,7.8-7.9,20.5-0.1,28.3
				c7.8,7.8,20.5,7.9,28.3,0.1l104.5-104c0,0,0,0,0,0C514,130.3,513.9,117.6,506.1,109.8L506.1,109.8z"/>
		</g>
	</g>
	<g id="svg_4">
	</g>
	<g id="svg_5">
	</g>
	<g id="svg_6">
	</g>
	<g id="svg_7">
	</g>
	<g id="svg_8">
	</g>
	<g id="svg_9">
	</g>
	<g id="svg_10">
	</g>
	<g id="svg_11">
	</g>
	<g id="svg_12">
	</g>
	<g id="svg_13">
	</g>
	<g id="svg_14">
	</g>
	<g id="svg_15">
	</g>
	<g id="svg_16">
	</g>
	<g id="svg_17">
	</g>
	<g id="svg_18">
	</g>
</g>
</svg>
