<svg width="797.09" height="425.73" xmlns="http://www.w3.org/2000/svg">
 <defs>
  <style>.cls-1{fill:#ec2027;}</style>
 </defs>
 <g>
  <title>background</title>
  <rect fill="none" id="canvas_background" height="602" width="802" y="-1" x="-1"/>
 </g>
 <g>
  <title>Layer 1</title>
  <g id="Layer_2">
   <g id="Layer_1-2">
    <g id="ABC_logo">
     <path fill="#fa0f00" id="svg_1" d="m133,154.4a132.46,132.46 0 0 1 82,28.23c9.46,8.13 19.13,15.63 26.77,24.72l78.8,93.81c12.76,15.21 30.27,39 46.64,49.49a75.06,75.06 0 1 0 -12.61,-116.28a75.46,75.46 0 0 0 -9.6,11.63c-21.85,-26.64 -45.08,-53.47 -67,-79.84l0,-127.53l55.54,-38.63l0,170.63a138.31,138.31 0 0 1 171.87,19c14.09,14.09 25.63,31.93 38,47.61l52,65.85c16.84,21.33 32.06,44.15 57.66,55.91c27.43,12.61 59.25,10.12 85.9,-14.81a80.19,80.19 0 0 0 19.76,-32.44l38.31,42.79a133.66,133.66 0 0 1 -20.8,26.93c-64,64 -151.5,41.38 -207.54,-20.89l-29,-32.22a138.51,138.51 0 0 1 -132.15,97.35c-46.77,0 -81.3,-21.69 -108.82,-57.38l-103.74,-132a80.69,80.69 0 0 0 -62,-29.3c-44.06,0 -80.32,36.27 -80.32,80.32s36.33,80.38 80.33,80.38a80,80 0 0 0 53.65,-20.55l33.5,40.73c-52.26,45.41 -132.15,42.64 -181.15,-6.43a132.66,132.66 0 0 1 -39,-94.07c0,-72.93 60.06,-133 133,-133m549.19,0a132.62,132.62 0 0 1 94.06,39c1.63,1.62 3.2,3.29 4.75,5l-37.91,36.59q-2,-2.26 -4.08,-4.4a80.32,80.32 0 0 0 -113.58,0a81.34,81.34 0 0 0 -9.43,11.4l-34.24,-41.74q3.09,-3.57 6.43,-6.91a132.64,132.64 0 0 1 94.06,-39" class="cls-1"/>
    </g>
   </g>
  </g>
 </g>
</svg>