<svg xmlns="http://www.w3.org/2000/svg" viewBox="0 0 28.59 28.77"><defs><style>.cls-1{fill:#212121;}.cls-2{fill:none;stroke:#212121;stroke-miterlimit:10;stroke-width:1.6px;}</style></defs><g id="Layer_2" data-name="Layer 2"><g id="Layer_1-2" data-name="Layer 1"><polygon class="cls-1" points="0 28.77 0 0 20.37 0 18.73 1.64 1.65 1.64 1.65 27.14 20.2 27.14 20.2 14.33 21.85 12.67 21.85 28.77 0 28.77"/><line class="cls-2" x1="5.03" y1="5.98" x2="15.42" y2="5.98"/><line class="cls-2" x1="5.03" y1="11.14" x2="8.72" y2="11.14"/><path class="cls-1" d="M6.77,20.35,26.55.57a.57.57,0,0,1,.8,0l1.07,1.08a.56.56,0,0,1,0,.79L8.64,22.23l-.07.05L5.3,24a.19.19,0,0,1-.25-.25l1.67-3.28Z"/></g></g></svg>