<?xml version="1.0" encoding="utf-8"?>
<!-- Generator: Adobe Illustrator 25.0.1, SVG Export Plug-In . SVG Version: 6.00 Build 0)  -->
<svg version="1.1" id="Layer_1" xmlns="http://www.w3.org/2000/svg" xmlns:xlink="http://www.w3.org/1999/xlink" x="0px" y="0px"
	 viewBox="0 0 66.6 69.8" style="enable-background:new 0 0 66.6 69.8;" xml:space="preserve">
<style type="text/css">
	.st0{fill:none;stroke:#7A7A7A;stroke-miterlimit:10;}
	.st1{fill:#7A7A7A;}
</style>
<ellipse class="st0" cx="33.2" cy="32.5" rx="32.7" ry="14.9"/>
<ellipse class="st0" cx="33.2" cy="32.5" rx="29.4" ry="11.6"/>
<path class="st0" d="M51.1,45.1v15.6c0,4.7-3.8,8.5-8.5,8.5H23.7c-4.7,0-8.5-3.8-8.5-8.5V45.1"/>
<g>
	<ellipse class="st1" cx="32.9" cy="32.6" rx="2.2" ry="0.8"/>
	<ellipse class="st1" cx="32.9" cy="28.8" rx="2.2" ry="0.8"/>
	<ellipse class="st1" cx="32.9" cy="25" rx="2.2" ry="0.8"/>
	<ellipse class="st1" cx="47.9" cy="27.2" rx="2.2" ry="0.8"/>
	<ellipse class="st1" cx="54.1" cy="32.6" rx="2.2" ry="0.8"/>
	<ellipse class="st1" cx="47.9" cy="37.9" rx="2.2" ry="0.8"/>
	<ellipse class="st1" cx="32.9" cy="40.2" rx="2.2" ry="0.8"/>
	<ellipse class="st1" cx="17.8" cy="37.9" rx="2.2" ry="0.8"/>
	<ellipse class="st1" cx="11.6" cy="32.6" rx="2.2" ry="0.8"/>
	<ellipse class="st1" cx="17.8" cy="27.2" rx="2.2" ry="0.8"/>
	<ellipse class="st1" cx="41.1" cy="25.6" rx="2.2" ry="0.8"/>
	<ellipse class="st1" cx="52.5" cy="29.7" rx="2.2" ry="0.8"/>
	<ellipse class="st1" cx="52.5" cy="35.5" rx="2.2" ry="0.8"/>
	<ellipse class="st1" cx="40.9" cy="39.6" rx="2.2" ry="0.8"/>
	<ellipse class="st1" cx="24.6" cy="39.6" rx="2.2" ry="0.8"/>
	<ellipse class="st1" cx="13.2" cy="35.4" rx="2.2" ry="0.8"/>
	<ellipse class="st1" cx="13.2" cy="29.6" rx="2.2" ry="0.8"/>
	<ellipse class="st1" cx="24.8" cy="25.5" rx="2.2" ry="0.8"/>
	<ellipse class="st1" cx="40.4" cy="29.9" rx="2.2" ry="0.8"/>
	<ellipse class="st1" cx="43.5" cy="32.6" rx="2.2" ry="0.8"/>
	<ellipse class="st1" cx="40.4" cy="35.2" rx="2.2" ry="0.8"/>
	<ellipse class="st1" cx="32.9" cy="36.4" rx="2.2" ry="0.8"/>
	<ellipse class="st1" cx="25.3" cy="35.2" rx="2.2" ry="0.8"/>
	<ellipse class="st1" cx="22.2" cy="32.6" rx="2.2" ry="0.8"/>
	<ellipse class="st1" cx="25.3" cy="29.9" rx="2.2" ry="0.8"/>
</g>
</svg>
