<?xml version="1.0" encoding="utf-8"?>
<!-- Generator: Adobe Illustrator 24.1.1, SVG Export Plug-In . SVG Version: 6.00 Build 0)  -->
<svg version="1.1" id="Layer_1" xmlns="http://www.w3.org/2000/svg" xmlns:xlink="http://www.w3.org/1999/xlink" x="0px" y="0px"
	 viewBox="0 0 92.5 60.9" style="enable-background:new 0 0 92.5 60.9;" xml:space="preserve">
<style type="text/css">
	.st0{fill:none;stroke:#FF0000;stroke-width:0.25;stroke-miterlimit:10;}
	.st1{fill:none;stroke:#FF0000;stroke-width:0.25;stroke-linecap:round;stroke-miterlimit:10;}
</style>
<g id="Layer_2_1_">
	<g id="Layer_1-2">
		<path class="st0" d="M2,0.5h88.5C91.4,0.5,92,1.2,92,2v56.9c0,0.8-0.7,1.5-1.5,1.5H2c-0.8,0-1.5-0.7-1.5-1.5V2
			C0.5,1.2,1.2,0.5,2,0.5z"/>
		<path class="st0" d="M33.3,10.8h15.2c1.7,0.1,2.9,1.5,2.9,3.2v35.7c0.1,1.7-1.2,3.1-2.9,3.3H10.4c-1.7-0.1-3-1.6-2.9-3.3V14
			c-0.1-1.7,1.2-3.1,2.9-3.3h16.2"/>
		<line class="st1" x1="60.5" y1="27.8" x2="81.6" y2="27.8"/>
		<line class="st1" x1="60.5" y1="19.4" x2="81.6" y2="19.4"/>
		<line class="st1" x1="60.5" y1="36.2" x2="81.6" y2="36.2"/>
		<line class="st1" x1="60.5" y1="44.5" x2="81.6" y2="44.5"/>
		<path class="st0" d="M26.6,7.3H31l0,0v17c0,1.2-1,2.2-2.2,2.2l0,0c-1.2,0-2.2-1-2.2-2.2L26.6,7.3L26.6,7.3L26.6,7.3z"/>
		<rect x="31" y="8.8" class="st0" width="2.3" height="4"/>
	</g>
</g>
</svg>
