<svg xmlns="http://www.w3.org/2000/svg" viewBox="0 0 68.46 60.5"><g id="Layer_2" data-name="Layer 2"><g id="Layer_1-2" data-name="Layer 1"><path d="M24.46,44.22a1.29,1.29,0,0,0,1.11.63,1.32,1.32,0,0,0,.63-.17l5.18-3a4.35,4.35,0,0,0,2.94,1.16,4.3,4.3,0,0,0,2.93-1.16l5.19,3a1.32,1.32,0,0,0,.63.17,1.27,1.27,0,0,0,.64-2.37l-5.18-3a4.32,4.32,0,0,0-3-5.1v-6a1.28,1.28,0,1,0-2.55,0v6a4.32,4.32,0,0,0-3,5.1l-5.18,3a1.3,1.3,0,0,0-.44,1.74Zm9.87-7.48a1.79,1.79,0,1,1-1.79,1.79,1.78,1.78,0,0,1,1.79-1.79Z"/><path d="M22,28.87A1.28,1.28,0,0,0,23.3,27.6V24.16a1.19,1.19,0,0,1,.42-.9,39.32,39.32,0,0,1,6.88-4.42,1.5,1.5,0,0,0,.84-1.34V12.67a1.25,1.25,0,0,0-.56-1.05,1,1,0,0,1-.45-.83v-5a3.26,3.26,0,0,1,3.25-3.25h1.07A3.26,3.26,0,0,1,38,5.79v5a1,1,0,0,1-.45.83A1.26,1.26,0,0,0,37,12.67V17.5a1.49,1.49,0,0,0,.84,1.34,38.19,38.19,0,0,1,6.88,4.42,1.18,1.18,0,0,1,.41.9V27.6a1.28,1.28,0,0,0,2.55,0V24.16a3.69,3.69,0,0,0-1.34-2.86,40.68,40.68,0,0,0-6.8-4.44V13.25a3.5,3.5,0,0,0,1-2.47v-5A5.8,5.8,0,0,0,34.75,0H33.68a5.79,5.79,0,0,0-5.79,5.79v5a3.54,3.54,0,0,0,1,2.48v3.6a41.09,41.09,0,0,0-6.79,4.45,3.7,3.7,0,0,0-1.34,2.85v3.44A1.27,1.27,0,0,0,22,28.87Z"/><path d="M49.68,48.49a41.09,41.09,0,0,0-6.79,4.45,3.66,3.66,0,0,0-1.34,2.85v3.44a1.27,1.27,0,0,0,2.54,0V55.79a1.13,1.13,0,0,1,.42-.89,38.31,38.31,0,0,1,6.88-4.42,1.5,1.5,0,0,0,.84-1.34V44.3a1.26,1.26,0,0,0-.56-1,1,1,0,0,1-.45-.82v-5a3.24,3.24,0,0,1,3.24-3.24h1.08a3.24,3.24,0,0,1,3.24,3.24v5a1,1,0,0,1-.45.82,1.29,1.29,0,0,0-.55,1v4.84a1.49,1.49,0,0,0,.83,1.34,37.24,37.24,0,0,1,6.88,4.42,1.13,1.13,0,0,1,.42.89v3.44a1.28,1.28,0,0,0,2.55,0V55.79a3.64,3.64,0,0,0-1.35-2.85,40.67,40.67,0,0,0-6.79-4.45v-3.6a3.55,3.55,0,0,0,1-2.48v-5a5.8,5.8,0,0,0-5.79-5.79H54.46a5.81,5.81,0,0,0-5.79,5.79v5a3.55,3.55,0,0,0,1,2.48Z"/><path d="M1.27,60.49a1.28,1.28,0,0,0,1.27-1.27V55.78a1.2,1.2,0,0,1,.42-.9,39.32,39.32,0,0,1,6.88-4.42,1.47,1.47,0,0,0,.84-1.34V44.29a1.25,1.25,0,0,0-.56-1,1,1,0,0,1-.45-.83v-5a3.26,3.26,0,0,1,3.25-3.25H14a3.26,3.26,0,0,1,3.25,3.25v5a1,1,0,0,1-.45.83,1.27,1.27,0,0,0-.56,1v4.83a1.47,1.47,0,0,0,.84,1.34A38.19,38.19,0,0,1,24,54.88a1.2,1.2,0,0,1,.42.9v3.44a1.27,1.27,0,1,0,2.54,0V55.78a3.69,3.69,0,0,0-1.34-2.86,41.1,41.1,0,0,0-6.8-4.44V44.87a3.47,3.47,0,0,0,1-2.47v-5A5.8,5.8,0,0,0,14,31.61H12.92a5.8,5.8,0,0,0-5.79,5.78v5a3.47,3.47,0,0,0,1,2.47v3.61a41.1,41.1,0,0,0-6.8,4.44A3.7,3.7,0,0,0,0,55.78v3.44a1.27,1.27,0,0,0,1.27,1.27Z"/></g></g></svg>