<?xml version="1.0" encoding="utf-8"?>
<!-- Generator: Adobe Illustrator 24.1.0, SVG Export Plug-In . SVG Version: 6.00 Build 0)  -->
<svg version="1.1" id="Layer_1" xmlns="http://www.w3.org/2000/svg" xmlns:xlink="http://www.w3.org/1999/xlink" x="0px" y="0px"
	 viewBox="0 0 68.4 57.2" style="enable-background:new 0 0 68.4 57.2;" xml:space="preserve">
<style type="text/css">
	.st0{fill:none;stroke:#B3B3B3;stroke-miterlimit:10;}
</style>
<g id="Layer_2_1_">
	<g id="Layer_1-2">
		<ellipse class="st0" cx="60.8" cy="30" rx="7.1" ry="13.7"/>
		<path class="st0" d="M31.5,16.3c-5.7,0-10.2,6.1-10.2,13.7s4.6,13.7,10.2,13.7"/>
		<line class="st0" x1="52" y1="16.3" x2="60.8" y2="16.3"/>
		<line class="st0" x1="31.5" y1="16.3" x2="44" y2="16.3"/>
		<line class="st0" x1="60.8" y1="43.7" x2="31.5" y2="43.7"/>
		<path class="st0" d="M36.6,16.1c-0.1-0.3-0.2-0.6-0.3-0.9c-2.7-7.2-7.3-12-12.5-12c-8.3,0-15,12-15,26.7s6.7,26.7,15,26.7
			c5.5,0,10.2-5.2,12.8-13"/>
		<path class="st0" d="M23.8,3.3h-8.3c-8.3,0-15,12-15,26.7s6.7,26.7,15,26.7h8.3"/>
		<line class="st0" x1="52" y1="20.3" x2="52" y2="1.7"/>
		<line class="st0" x1="44" y1="1.7" x2="44" y2="20.3"/>
		<ellipse class="st0" cx="48" cy="1.7" rx="4" ry="1.2"/>
		<path class="st0" d="M44,20.3c0,0.7,1.8,1.2,4,1.2s4-0.5,4-1.2"/>
	</g>
</g>
</svg>
