<svg xmlns="http://www.w3.org/2000/svg" viewBox="0 0 68.43 57.21"><defs><style>.cls-1{fill:none;stroke:#fff;stroke-miterlimit:10;}</style></defs><g id="Layer_2" data-name="Layer 2"><g id="Layer_1-2" data-name="Layer 1"><ellipse class="cls-1" cx="60.79" cy="30" rx="7.14" ry="13.67"/><path class="cls-1" d="M31.52,16.33c-5.66,0-10.24,6.12-10.24,13.67s4.58,13.67,10.24,13.67"/><line class="cls-1" x1="52.02" y1="16.33" x2="60.79" y2="16.33"/><line class="cls-1" x1="31.52" y1="16.33" x2="44.04" y2="16.33"/><line class="cls-1" x1="60.79" y1="43.67" x2="31.52" y2="43.67"/><path class="cls-1" d="M36.62,16.12c-.09-.29-.2-.57-.3-.85-2.68-7.22-7.28-12-12.5-12-8.27,0-15,12-15,26.71s6.71,26.71,15,26.71c5.45,0,10.23-5.19,12.85-13"/><path class="cls-1" d="M23.82,3.29H15.48C7.21,3.29.5,15.25.5,30s6.71,26.71,15,26.71h8.34"/><line class="cls-1" x1="52.02" y1="20.31" x2="52.02" y2="1.72"/><line class="cls-1" x1="44.04" y1="1.72" x2="44.04" y2="20.31"/><ellipse class="cls-1" cx="48.03" cy="1.72" rx="3.99" ry="1.22"/><path class="cls-1" d="M44,20.31c0,.68,1.79,1.22,4,1.22s4-.54,4-1.22"/></g></g></svg>