<svg xmlns="http://www.w3.org/2000/svg" viewBox="0 0 316.89 134.98"><defs><style>.cls-1{fill:#231f20;}</style></defs><g id="Layer_2" data-name="Layer 2"><g id="Layer_1-2" data-name="Layer 1"><path class="cls-1" d="M308.27,16.82h2.13a3.27,3.27,0,0,0,1.06-.14,1.16,1.16,0,0,0,.58-.45,1.18,1.18,0,0,0,.2-.68,1.14,1.14,0,0,0-.38-.87,1.81,1.81,0,0,0-1.22-.34h-2.37Zm-1,4.18V13.51h3.32a4.49,4.49,0,0,1,1.52.2,1.7,1.7,0,0,1,.84.71,2.23,2.23,0,0,1,.31,1.13,1.93,1.93,0,0,1-.52,1.35,2.64,2.64,0,0,1-1.59.69,2.31,2.31,0,0,1,.59.38,4.93,4.93,0,0,1,.83,1l1.3,2h-1.25l-1-1.56c-.29-.45-.53-.79-.71-1a2.12,2.12,0,0,0-.51-.5l-.45-.2a3.25,3.25,0,0,0-.55,0h-1.15V21Z"/><path class="cls-1" d="M303.91,17.4A6.14,6.14,0,1,0,310,11.26a6.14,6.14,0,0,0-6.13,6.14m-.71,0A6.85,6.85,0,1,1,310,24.25a6.85,6.85,0,0,1-6.84-6.85"/><path class="cls-1" d="M0,0H11.6V59.48a24.52,24.52,0,0,0,5.73,16.43,18.57,18.57,0,0,0,14.88,6.67q10,0,15.84-7.32c3.35-4.23,5-8.08,5-13.68,0-14-12.84-20.73-20.3-20.73-10.24,0-14.49,5.52-16.49,7.66V33.57a31.94,31.94,0,0,1,16-4.26c19.17,0,32.21,16.38,32.21,32.22,0,9.45-2.53,15.1-8.07,21.56q-9,10.53-24.15,10.53-14,0-23.1-9.66A32.63,32.63,0,0,1,0,60.76Z"/><path class="cls-1" d="M147,76.27,147,1.45h11.46V30.69h25.84v11H158.48V76.27a5.76,5.76,0,0,0,2.13,4.49q2,2,6.18,2h17.53v11H166.53c-6.78,0-12.52-.58-15.82-4.52-2.92-3.42-3.76-7.23-3.76-13"/><path class="cls-1" d="M193.17.64h11.34V35.2c13-13,40.23-4.26,40.23,16.8l-.17,41.79H232.65l-.07-38.95c0-7.73-5.37-14-13.24-14-7.69,0-14.83,5.28-14.83,17.64V93.79H193.17Z"/><path class="cls-1" d="M253.73,41.86v-11A27.17,27.17,0,0,1,268,34.61a28.49,28.49,0,0,1,10.18,11.68A22.4,22.4,0,0,1,290,33.84,29.87,29.87,0,0,1,303.2,30.7V41.86A21.48,21.48,0,0,0,289.61,48q-5.55,5.53-5.54,14.19,0,10.53,7.92,16.3,5.67,4.24,11.21,4.24v11Q293,93.79,286,88.4a34.55,34.55,0,0,1-7.86-9.25,25.06,25.06,0,0,1-10.05,11.08,28.77,28.77,0,0,1-14.36,3.56v-11q8,0,13.59-6.74a21.15,21.15,0,0,0,5.09-13.8,21.83,21.83,0,0,0-4.58-13.41,17,17,0,0,0-14.1-6.94"/><path class="cls-1" d="M42.12,61.58a9.82,9.82,0,1,1-9.82-9.82,9.82,9.82,0,0,1,9.82,9.82"/><path class="cls-1" d="M115.2,61.58a9.82,9.82,0,1,1-9.81-9.82,9.81,9.81,0,0,1,9.81,9.82"/><path class="cls-1" d="M105.39,29.37a32.21,32.21,0,1,0,16,60.17V74.88a20.72,20.72,0,1,1,4.79-13.25V93.79h11.34l.08-32.21a32.21,32.21,0,0,0-32.21-32.21"/><g id="bathx_with_tagline" data-name="bathx with tagline"><path class="cls-1" d="M114.57,107.85a50.87,50.87,0,0,0-5.82.78l-.11-.2c1.28-2.05,2.25-3.48,2.25-3.48a1.08,1.08,0,0,0,.19-.59c0-.35-.35-.38-.66-.42a1.68,1.68,0,0,0-1.32.5,40.21,40.21,0,0,1-2.59,4.42l-.32.12a18.14,18.14,0,0,1-2.55.23h-.82a3.67,3.67,0,0,1-2.25-.55,5.62,5.62,0,0,0-1.74-.85.2.2,0,0,0-.23.23c0,1,1.16,2.41,3.72,2.41a18.8,18.8,0,0,0,3.18-.31l.15.08,0,.11c-1.59,3.18-6.7,9.19-6.7,13.53,0,1.51,0,2.79,1.2,2.79,1.71,0,5-2.21,7.48-3.84l5.54-3.68a.7.7,0,0,0,.31-.54.46.46,0,0,0-.11-.31c-3.88,1.39-10.16,6.63-12.68,6.63-.54,0-.62-.51-.62-.86a1.61,1.61,0,0,1,0-.35c.7-3.91,7.64-13.64,7.64-13.64.23-.23.23-.19.62-.27a21.46,21.46,0,0,1,4.49-.51,11.34,11.34,0,0,1,1.51.16c.74,0,.94-1.12.94-1.28,0-.31-.51-.31-.7-.31"/><path class="cls-1" d="M79.72,105.76a1.78,1.78,0,0,0-1.24-1.9,4,4,0,0,0-1-.08c-3.76,0-8.61,3.92-8.61,3.92l-.27.15,0-.08,0-.19c1.17-2.25,1.13-2.79,1.13-2.79,0-.7-1-1.28-1.36-1.28-.19,0-.19.15-.19.27s-.08,2-6.2,12.44a.5.5,0,0,1-.43.2s-.39,0-.93,0A8.51,8.51,0,0,1,59,116.3c-.12,0-.35.08-.35.54,0,.16.16.74.58.82a5.86,5.86,0,0,0,1.51.19l.16.23c-.47.74-2.21,4-3.64,6a3.74,3.74,0,0,0-.43,1.71s.15,1.78.78,1.82c0,0,.38-.08.62-.93a59.87,59.87,0,0,1,4.61-8.84.65.65,0,0,1,.42-.23c4.73-.31,16.44-5,16.44-11.82M64.41,116c-.12,0-.12,0-.12-.23,1-2.79,7.48-10.39,12-10.39.74,0,1,.12,1,1,0,4.57-8.48,9.38-12.9,9.65"/><path class="cls-1" d="M54.17,105.8a2.76,2.76,0,0,0-1,.23c-.12,0-1.13,2-1.48,2.6s-.46,1.24-1.08,2.4c0,0,0,.31.19.31.78,0,1.82-1.86,2.75-3.22a7.35,7.35,0,0,1,1.13-1.32.91.91,0,0,0,.31-.54c0-.31-.51-.46-.82-.46"/><path class="cls-1" d="M218.72,111l.27-.15a2.35,2.35,0,0,1,.62-.12s1.29-.27,1.29-1.12c0-.51-.24-.82-.62-.82a3.34,3.34,0,0,0-1.09.43s-1,.58-1,1.39c0,.39.5.39.5.39"/><path class="cls-1" d="M59.17,106.8a.91.91,0,0,0,.31-.54c0-.31-.5-.46-.81-.46a2.85,2.85,0,0,0-1,.23c-.11,0-1.12,2-1.47,2.6s-.47,1.24-1.08,2.4c0,0,0,.31.19.31.77,0,1.82-1.86,2.75-3.22a7.55,7.55,0,0,1,1.12-1.32"/><path class="cls-1" d="M159.53,116.15a1.46,1.46,0,0,0-1.24.46,10.85,10.85,0,0,1-1.12,1.51c-1.48,1.4-5,3.84-6.4,3.84-.46,0-.46-.23-.46-.46,0-1.71,3.6-6.9,5.5-8.22.27-.2.35-.31.35-.39,0-.39-1-.47-1.16-.47-.74,0-.7.08-1.2.51,0,0-4.58,5-4.58,8.84,0,.07.23,1.62,1.24,1.62,0,0,1.59,0,5.47-3.14l.11,0,.08.15c-.46.89-4.3,7.83-5.58,10.27-.19.47-1,1.09-1.28,2.06a5.26,5.26,0,0,0-.27,1.47c0,.19,0,.81.31.81.12,0,.23-.07.39-.31.38-.73,2.56-4.57,2.75-5,4.53-7.75,5.54-9.65,8.18-13,0-.39-.66-.5-1.09-.5"/><path class="cls-1" d="M237,112.62l.16-.16a2,2,0,0,0,.46-1,.37.37,0,0,0-.31-.39c-1.43,0-5.7.74-5.74.74l-.11-.24c3.26-5.62,5.93-7.28,5.93-7.28a.77.77,0,0,1,.5-.24l.2.08a1.43,1.43,0,0,1,.11.58,4.93,4.93,0,0,1-.35,1.55l0,.24.12.15.27-.08a4.34,4.34,0,0,0,1.86-3c0-.54-.66-.62-1.12-.62a5.22,5.22,0,0,0-3.37,1c-2,1.74-5.86,8.1-5.86,8.1l-.31.19c-1.2.08-2,.12-2.55.12-1.24,0-1.32-.15-1.32-.15l-.31-.16s-1,.5-1,1.12c0,.24,0,.51,1.4.51a19.35,19.35,0,0,0,2.82-.23l.12,0,.08.07,0,.16s-6.36,10.66-6.63,12.4c0,.62.27,2.29,1,2.29.12,0,.27-.08.39-.39a12.27,12.27,0,0,0,.31-1.51c0-1.55,6.08-12.44,6.78-13l.27-.24a23,23,0,0,1,4.77-.7,5.28,5.28,0,0,1,1.55.2"/><path class="cls-1" d="M249,105.8a2.85,2.85,0,0,0-1,.23c-.11,0-1.12,2-1.47,2.6s-.46,1.24-1.09,2.4c0,0,0,.31.2.31.77,0,1.82-1.86,2.75-3.22a7.55,7.55,0,0,1,1.12-1.32.91.91,0,0,0,.31-.54c0-.31-.5-.46-.81-.46"/><path class="cls-1" d="M246.25,118.16l-.16.08c-4.11,2.25-9.15,5-11.74,5-.89,0-1.09-.27-1.09-.89a5,5,0,0,1,.5-1.75.44.44,0,0,1,.35-.23c4-1.12,6.32-3.29,6.32-5a2.1,2.1,0,0,0-1.55-2c-.31,0-1.59.15-3.72,2.44,0-.08-3,3.49-3,5.93,0,.89.51,2.71,2.21,2.71,3.22,0,11.48-4.65,11.48-4.84a1.59,1.59,0,0,0,.5-1.17c0-.19-.08-.23-.11-.23m-11.48.58c.35-.7,2.75-4,4.19-4a.2.2,0,0,1,.23.23c0,1.71-3.53,4.11-4.42,4.11l-.11-.07Z"/><path class="cls-1" d="M253.46,105.8a2.78,2.78,0,0,0-1,.23c-.12,0-1.13,2-1.48,2.6s-.46,1.24-1.08,2.4c0,0,0,.31.19.31.78,0,1.83-1.86,2.76-3.22A7.06,7.06,0,0,1,254,106.8a.91.91,0,0,0,.31-.54c0-.31-.5-.46-.81-.46"/><path class="cls-1" d="M225.55,117.23l-.12-.19a1.64,1.64,0,0,0-.62.31,46.45,46.45,0,0,1-8.76,4.26,5.29,5.29,0,0,1-1.24.19c-.58,0-.93-.11-.93-.77,0-1.78,3.22-5.58,4.19-6.32a.54.54,0,0,0,.27-.43c0-.19-.35-.19-.35-.19a3.5,3.5,0,0,0-2,.47,14.16,14.16,0,0,0-2.3,3.32h0C206.36,122.5,204,123,203.14,123s-.85-.55-.85-.82c0-2.63,5-9.61,5-9.61,5.7-7.94,6.59-9.38,6.59-9.38L214,103c0-.27-.51-.31-1-.35-1.09,0-1.36.46-1.36.46s-3.29,5.28-5.54,8.61c0,0-4.89,7-4.89,10.46,0,1.28.16,2.37,1.51,2.37a3.86,3.86,0,0,0,1.44-.27,37.13,37.13,0,0,0,8.79-4.7,4.44,4.44,0,0,0-.22,1.21,1.87,1.87,0,0,0,.38,1.28,2.64,2.64,0,0,0,2,1l.47,0s1.43-.07,8-3.72c0,0,1.71-.81,2-2.09"/><path class="cls-1" d="M182.29,116.69a1.8,1.8,0,0,0-1.48.54c-2.44,3.1-6.2,4.92-7.05,4.92-.31,0-.31-.19-.31-.31.27-1.86,2.36-4.76,3.41-5.93a12.46,12.46,0,0,0,1.09-1.12,1.13,1.13,0,0,0-1-1.13.56.56,0,0,0-.31.08,26.08,26.08,0,0,0-2.86,3.83,17.47,17.47,0,0,1-5.9,1.41c-.2,0-.24-.08-.24-.16s.55-.74.55-1.43c0-.27-.35-.31-.55-.31a3.31,3.31,0,0,0-2.48,2.28.72.72,0,0,0,.39.55l0,.11a4.29,4.29,0,0,1-2.75,1.9c-.31,0-.31-.27-.31-.47,0-2,3.1-5,3.1-5a2.39,2.39,0,0,1,1.7-.7c.2,0,.24-.08.24-.16,0-.5-1.44-.85-1.75-.85a1.19,1.19,0,0,0-.58.16c-.23,0-4,3.64-4,6.93,0,.66.27,1.59,1.16,1.59,1.32,0,2.68-1.2,4.19-3.1l.23-.11a19.5,19.5,0,0,0,6.32-1.4,7,7,0,0,0-.81,2.91c0,.62.15,2.13,1.2,2.13.54,0,1.28-.16,5.73-3.72l.16-.08.08.08,0,.08a5.7,5.7,0,0,0-.35,1.58c0,.24.08.74.35.74,0,0,.15,0,.23-.27a33.36,33.36,0,0,1,2.29-3.76c.39-.5,1.08-1.24,1.08-1.55s-.19-.23-.73-.27"/><path class="cls-1" d="M145.38,102.89a5.26,5.26,0,0,0-3.37,1c-2,1.74-5.85,8.1-5.85,8.1l-.31.19c-1.2.08-2,.12-2.56.12-1.24,0-1.32-.15-1.32-.15l-.31-.16s-1,.5-1,1.12c0,.24,0,.51,1.4.51a19.56,19.56,0,0,0,2.83-.23l.12,0,.07.07,0,.16s-.88,1.48-2,3.43a19,19,0,0,1-7.3,2c-.19,0-.23-.08-.23-.16s.54-.74.54-1.43c0-.27-.35-.32-.54-.32a3.32,3.32,0,0,0-2.48,2.29.72.72,0,0,0,.38.55l0,.11a4.3,4.3,0,0,1-2.76,1.9c-.31,0-.31-.27-.31-.46,0-2.06,3.1-5,3.1-5a2.4,2.4,0,0,1,1.71-.7c.19,0,.23-.08.23-.16,0-.5-1.43-.85-1.74-.85a1.13,1.13,0,0,0-.58.16c-.24,0-4,3.64-4,6.93,0,.66.27,1.59,1.16,1.59,1.32,0,2.67-1.2,4.18-3.1l.24-.11a20.67,20.67,0,0,0,7.63-1.93c-1.75,3.08-3.72,6.71-3.87,7.66,0,.62.27,2.29,1,2.29.11,0,.27-.08.38-.39a10.38,10.38,0,0,0,.31-1.51c0-1.55,6.09-12.44,6.79-13l.27-.24a22.83,22.83,0,0,1,4.77-.7,5.37,5.37,0,0,1,1.55.2l.15-.16a2,2,0,0,0,.46-1,.37.37,0,0,0-.3-.39c-1.44,0-5.7.74-5.74.74l-.12-.24c3.26-5.62,5.93-7.28,5.93-7.28a.77.77,0,0,1,.51-.24l.19.08a1.28,1.28,0,0,1,.12.58,4.93,4.93,0,0,1-.35,1.55l0,.24.12.15.27-.08a4.34,4.34,0,0,0,1.86-3c0-.54-.66-.62-1.13-.62"/><path class="cls-1" d="M192.37,113.36A22.84,22.84,0,0,0,188.1,116l-.11.08-.08-.16a4.83,4.83,0,0,0,.62-1.78,1.27,1.27,0,0,0-1-1.13l-.23-.07a.19.19,0,0,0-.2.19v.16c0,.46-.15,2.05-1.93,5,0,0-.62,1-1.32,2a6.32,6.32,0,0,0-1.2,2.52c0,.12.07,1,.54,1a.57.57,0,0,0,.19-.27,49,49,0,0,1,3-4.11c4-3.8,8.21-6.24,10-6.78.31-.2.39-.31.39-.35l-.12,0a11.56,11.56,0,0,0-4.26,1.09"/><path class="cls-1" d="M102.2,112.27a11.63,11.63,0,0,0-4.26,1.09A23.22,23.22,0,0,0,93.67,116l-.11.08-.08-.16a4.83,4.83,0,0,0,.62-1.78,1.27,1.27,0,0,0-1-1.13l-.23-.07a.19.19,0,0,0-.19.19v.16a9.41,9.41,0,0,1-1.49,4.19l-9.68,3.91c-.31,0-.31-.12-.31-.35,0-.89,1.67-2.83,1.67-2.83.19-.2.23-.31.23-.43,0-.35-.81-.46-1-.46-.81,0-.93.58-1.35,1A30.87,30.87,0,0,1,76,121.65a2.91,2.91,0,0,1-1.16.39c-.2,0-.27-.08-.27-.2l.19-.46a15.57,15.57,0,0,1,2.9-3.14c2.6-2.29,3.88-2.37,3.88-2.37a3.11,3.11,0,0,1,1.4.39l.15,0,.16-.23a2.21,2.21,0,0,0-1.9-1.67c-2.87.43-7.25,5.7-7.25,5.7-1,1.4-1.16,2.05-1.16,2.36a1.49,1.49,0,0,0,1.36,1.24,3,3,0,0,0,1.58-.66s2.33-1.51,4-2.82l.15-.08.08.15c0,.78.11,2.29,1.36,2.29,1.8,0,7-2.6,8.91-3.62-.24.38-.55.87-.89,1.37a6.47,6.47,0,0,0-1.2,2.52c0,.12.08,1,.54,1a.63.63,0,0,0,.2-.27,47.12,47.12,0,0,1,3-4.11c4-3.8,8.22-6.24,10-6.78.31-.2.39-.31.39-.35Z"/></g></g></g></svg>