<svg xmlns="http://www.w3.org/2000/svg" viewBox="0 0 56.81 77.55"><defs><style>.cls-1{fill:none;stroke:#fff;stroke-miterlimit:10;}</style></defs><g id="Layer_2" data-name="Layer 2"><g id="Layer_1-2" data-name="Layer 1"><g id="FweAiP"><path class="cls-1" d="M55.82,38.48H.5c0,6,6.49,11.86,8.82,16,2.81,5,3.48,10.27,3.08,15.8-.14,1.83-.16,3.66-.31,5.49-.08.86.24,1.13,1.09,1.23l26.2,0c1,0,1.23-.7,1.15-1.71-.36-4.75-.72-9.51-.83-14.27-.08-3.42,1.8-6,4.76-7.75a29.86,29.86,0,0,1,3.37-1.75,13.18,13.18,0,0,0,7.32-8.28c.45-1.31.75-2.66,1.14-4.19A.49.49,0,0,0,55.82,38.48Z"/><path class="cls-1" d="M11.18.5H2.6A2,2,0,0,0,.5,2.29V34.41C.5,35.69,1,36,2.82,36c2.9-.07,5.8,0,8.7,0,1.24,0,1.76-.38,1.76-1.33V2.29A2,2,0,0,0,11.18.5Z"/><path class="cls-1" d="M17.23,38.48v-1.3a1.87,1.87,0,0,1,1.88-1.87H52.49a2.6,2.6,0,0,1,2.6,2.6h0v.49"/></g></g></g></svg>