<svg width="512" height="512" xmlns="http://www.w3.org/2000/svg">

 <g>
  <title>background</title>
  <rect fill="none" id="canvas_background" height="602" width="802" y="-1" x="-1"/>
 </g>
 <g>
  <title>Layer 1</title>
  <g id="svg_1">
   <g id="svg_2">
    <path fill="#c1c1c1" id="svg_3" d="m467,61l-422,0c-6.927,0 -13.412,1.703 -19.279,4.51l229.279,229.279l51.389,-49.387c0,0 0.004,-0.005 0.005,-0.007c0.001,-0.002 0.005,-0.004 0.005,-0.004l179.887,-179.877c-5.868,-2.809 -12.357,-4.514 -19.286,-4.514z"/>
   </g>
  </g>
  <g id="svg_4">
   <g id="svg_5">
    <path fill="#c1c1c1" id="svg_6" d="m507.496,86.728l-169.283,169.274l169.277,169.277c2.807,-5.867 4.51,-12.352 4.51,-19.279l0,-300c0,-6.923 -1.699,-13.407 -4.504,-19.272z"/>
   </g>
  </g>
  <g id="svg_7">
   <g id="svg_8">
    <path fill="#c1c1c1" id="svg_9" d="m4.51,86.721c-2.807,5.867 -4.51,12.352 -4.51,19.279l0,300c0,6.923 1.701,13.409 4.506,19.274l169.283,-169.274l-169.279,-169.279z"/>
   </g>
  </g>
  <g id="svg_10">
   <g id="svg_11">
    <path fill="#c1c1c1" id="svg_12" d="m317.002,277.213l-51.396,49.393c-2.93,2.93 -6.768,4.395 -10.605,4.395s-7.676,-1.465 -10.605,-4.395l-49.396,-49.395l-169.286,169.275c5.868,2.809 12.357,4.514 19.286,4.514l422,0c6.927,0 13.412,-1.703 19.279,-4.51l-169.277,-169.277z"/>
   </g>
  </g>
  <g id="svg_13"/>
  <g id="svg_14"/>
  <g id="svg_15"/>
  <g id="svg_16"/>
  <g id="svg_17"/>
  <g id="svg_18"/>
  <g id="svg_19"/>
  <g id="svg_20"/>
  <g id="svg_21"/>
  <g id="svg_22"/>
  <g id="svg_23"/>
  <g id="svg_24"/>
  <g id="svg_25"/>
  <g id="svg_26"/>
  <g id="svg_27"/>
 </g>
</svg>